<svg xmlns="http://www.w3.org/2000/svg" xmlns:xlink="http://www.w3.org/1999/xlink" width="500" zoomAndPan="magnify" viewBox="0 0 375 374.999991" height="500" preserveAspectRatio="xMidYMid meet" version="1.0"><defs><clipPath id="78b49c2039"><path d="M 37 167 L 334 167 L 334 357.96875 L 37 357.96875 Z M 37 167 " clip-rule="nonzero"/></clipPath></defs><g clip-path="url(#78b49c2039)"><path fill="#2ecc71" d="M 317.832031 357.8125 L 230.394531 357.8125 C 222.734375 357.8125 216.5 351.578125 216.5 343.914062 L 216.5 249.117188 C 216.5 232.511719 202.988281 219.003906 186.382812 219.003906 L 184.898438 219.003906 C 168.292969 219.003906 154.78125 232.511719 154.78125 249.117188 L 154.78125 343.914062 C 154.78125 351.578125 148.546875 357.8125 140.882812 357.8125 L 53.453125 357.8125 C 44.671875 357.8125 37.527344 350.667969 37.527344 341.890625 L 37.527344 175.144531 C 37.527344 170.6875 41.140625 167.078125 45.59375 167.078125 C 50.050781 167.078125 53.660156 170.6875 53.660156 175.144531 L 53.660156 341.679688 L 138.652344 341.679688 L 138.652344 249.117188 C 138.652344 223.617188 159.398438 202.871094 184.898438 202.871094 L 186.386719 202.871094 C 211.886719 202.871094 232.632812 223.617188 232.632812 249.117188 L 232.632812 341.679688 L 317.621094 341.679688 L 317.621094 175.460938 C 317.621094 171.003906 321.234375 167.394531 325.6875 167.394531 C 330.144531 167.394531 333.753906 171.003906 333.753906 175.460938 L 333.753906 341.890625 C 333.753906 350.667969 326.613281 357.8125 317.832031 357.8125 Z M 317.832031 357.8125 " fill-opacity="1" fill-rule="nonzero"/></g><path fill="#2ecc71" d="M 362.160156 171.464844 C 360.460938 171.464844 358.746094 170.929688 357.289062 169.820312 L 185.609375 39.355469 L 13.996094 169.800781 C 10.449219 172.5 5.390625 171.808594 2.695312 168.261719 C -0.00390625 164.714844 0.6875 159.65625 4.234375 156.960938 L 180.726562 22.800781 C 183.613281 20.605469 187.605469 20.605469 190.488281 22.800781 L 367.050781 156.972656 C 370.597656 159.671875 371.285156 164.730469 368.589844 168.277344 C 367.003906 170.367188 364.597656 171.464844 362.160156 171.464844 Z M 362.160156 171.464844 " fill-opacity="1" fill-rule="nonzero"/></svg>