<svg xmlns="http://www.w3.org/2000/svg" xmlns:xlink="http://www.w3.org/1999/xlink" width="500" zoomAndPan="magnify" viewBox="0 0 375 374.999991" height="500" preserveAspectRatio="xMidYMid meet" version="1.0"><defs><clipPath id="7755bf767c"><path d="M 42 166 L 335 166 L 335 355.074219 L 42 355.074219 Z M 42 166 " clip-rule="nonzero"/></clipPath><clipPath id="3d9934efbc"><path d="M 6 22.074219 L 371 22.074219 L 371 172 L 6 172 Z M 6 22.074219 " clip-rule="nonzero"/></clipPath></defs><g clip-path="url(#7755bf767c)"><path fill="#000000" d="M 319.222656 355.09375 L 232.910156 355.09375 C 225.34375 355.09375 219.191406 348.941406 219.191406 341.375 L 219.191406 247.792969 C 219.191406 231.398438 205.855469 218.0625 189.460938 218.0625 L 187.992188 218.0625 C 171.601562 218.0625 158.265625 231.398438 158.265625 247.792969 L 158.265625 341.375 C 158.265625 348.941406 152.109375 355.09375 144.542969 355.09375 L 58.230469 355.09375 C 49.566406 355.09375 42.511719 348.042969 42.511719 339.375 L 42.511719 174.765625 C 42.511719 170.371094 46.078125 166.804688 50.476562 166.804688 C 54.875 166.804688 58.441406 170.371094 58.441406 174.765625 L 58.441406 339.167969 L 142.339844 339.167969 L 142.339844 247.792969 C 142.339844 222.621094 162.820312 202.136719 187.996094 202.136719 L 189.460938 202.136719 C 214.636719 202.136719 235.117188 222.621094 235.117188 247.792969 L 235.117188 339.167969 L 319.015625 339.167969 L 319.015625 175.078125 C 319.015625 170.679688 322.582031 167.117188 326.980469 167.117188 C 331.378906 167.117188 334.945312 170.679688 334.945312 175.078125 L 334.945312 339.375 C 334.945312 348.042969 327.890625 355.09375 319.226562 355.09375 Z M 319.222656 355.09375 " fill-opacity="1" fill-rule="nonzero"/></g><g clip-path="url(#3d9934efbc)"><path fill="#000000" d="M 362.984375 171.132812 C 361.308594 171.132812 359.613281 170.605469 358.175781 169.511719 L 188.695312 40.71875 L 19.28125 169.496094 C 15.78125 172.15625 10.785156 171.472656 8.125 167.976562 C 5.460938 164.472656 6.144531 159.476562 9.644531 156.816406 L 183.875 24.375 C 186.722656 22.210938 190.664062 22.210938 193.515625 24.375 L 367.8125 156.832031 C 371.3125 159.492188 371.992188 164.488281 369.332031 167.988281 C 367.765625 170.050781 365.390625 171.136719 362.984375 171.136719 Z M 362.984375 171.132812 " fill-opacity="1" fill-rule="nonzero"/></g></svg>