<svg xmlns="http://www.w3.org/2000/svg" xmlns:xlink="http://www.w3.org/1999/xlink" width="500" zoomAndPan="magnify" viewBox="0 0 375 374.999991" height="500" preserveAspectRatio="xMidYMid meet" version="1.0"><defs><clipPath id="c3418c980e"><path d="M 29.5625 18 L 345.3125 18 L 345.3125 367.019531 L 29.5625 367.019531 Z M 29.5625 18 " clip-rule="nonzero"/></clipPath></defs><g clip-path="url(#c3418c980e)"><path fill="#2ecc71" d="M 325.582031 106.195312 L 310.289062 106.195312 C 317.3125 98.316406 320.476562 90.28125 319.5625 82.175781 C 317.511719 64.035156 295.796875 53.558594 293.292969 52.40625 C 285.421875 48.46875 285.421875 45.804688 285.421875 40.957031 C 285.421875 33.453125 284.363281 26.1875 271.539062 19.777344 C 248.128906 8.070312 207.148438 62.671875 195.59375 79.007812 L 174.007812 79.007812 C 162.476562 62.695312 121.511719 8.015625 98.058594 19.761719 C 85.234375 26.171875 84.175781 33.4375 84.175781 40.941406 C 84.175781 45.785156 84.175781 48.453125 76.316406 52.382812 C 74.078125 53.40625 52.0625 63.90625 49.996094 82.175781 C 49.078125 90.28125 52.25 98.316406 59.261719 106.195312 L 49.410156 106.195312 C 38.59375 106.195312 29.796875 114.996094 29.796875 125.8125 L 29.796875 173.585938 C 29.796875 183.269531 36.863281 191.285156 46.109375 192.867188 L 46.109375 345.195312 C 46.109375 357.339844 55.988281 367.21875 68.136719 367.21875 L 306.855469 367.21875 C 319.003906 367.21875 328.882812 357.339844 328.882812 345.195312 L 328.882812 192.871094 C 338.128906 191.289062 345.195312 183.273438 345.195312 173.589844 L 345.195312 125.816406 C 345.195312 114.996094 336.398438 106.195312 325.582031 106.195312 Z M 308.75 83.421875 C 309.539062 90.476562 304.65625 98.136719 294.355469 106.195312 L 236.949219 106.195312 C 256.210938 97.175781 281.054688 82.792969 292.917969 64.507812 C 299.125 68.234375 307.832031 75.167969 308.75 83.421875 Z M 154.867188 103.84375 C 140.667969 98.355469 108.804688 84.621094 91.695312 66.148438 C 108.714844 71.023438 137.253906 81.160156 154.867188 97.71875 Z M 165.742188 92.128906 C 165.742188 90.890625 166.753906 89.882812 167.988281 89.882812 L 201.5625 89.882812 C 202.796875 89.882812 203.808594 90.890625 203.808594 92.128906 L 203.808594 106.195312 L 165.742188 106.195312 Z M 277.808594 66.191406 C 260.695312 84.625 228.875 98.351562 214.6875 103.84375 L 214.6875 97.769531 C 232.265625 81.214844 260.765625 71.078125 277.808594 66.191406 Z M 266.671875 29.503906 C 274.542969 33.441406 274.542969 36.105469 274.542969 40.953125 C 274.542969 45.667969 274.960938 50.289062 278.457031 54.667969 C 262.554688 58.953125 233.359375 68.523438 212.625 85.125 C 211.433594 83.253906 209.78125 81.738281 207.828125 80.664062 C 226.925781 54.75 255.742188 23.992188 266.671875 29.503906 Z M 95.050781 40.941406 C 95.050781 36.097656 95.050781 33.425781 102.917969 29.496094 C 113.910156 23.984375 142.675781 54.730469 161.761719 80.65625 C 159.804688 81.722656 158.140625 83.234375 156.945312 85.101562 C 136.214844 68.507812 107.03125 58.941406 91.136719 54.65625 C 94.632812 50.277344 95.050781 45.65625 95.050781 40.941406 Z M 60.800781 83.421875 C 61.722656 75.164062 70.425781 68.234375 76.636719 64.503906 C 88.496094 82.785156 113.34375 97.171875 132.605469 106.191406 L 75.195312 106.191406 C 64.898438 98.136719 60.015625 90.476562 60.800781 83.421875 Z M 40.671875 173.589844 L 40.671875 125.816406 C 40.671875 120.992188 44.589844 117.074219 49.410156 117.074219 L 143.992188 117.074219 L 143.992188 182.328125 L 49.410156 182.328125 C 44.589844 182.328125 40.671875 178.40625 40.671875 173.589844 Z M 56.984375 345.195312 L 56.984375 193.203125 L 143.992188 193.203125 L 143.992188 356.34375 L 68.136719 356.34375 C 61.988281 356.34375 56.984375 351.339844 56.984375 345.195312 Z M 154.867188 187.765625 L 154.867188 117.074219 L 160.289062 117.074219 C 160.296875 117.074219 160.300781 117.074219 160.304688 117.074219 C 160.3125 117.074219 160.316406 117.074219 160.324219 117.074219 L 209.230469 117.074219 C 209.238281 117.074219 209.242188 117.074219 209.246094 117.074219 C 209.253906 117.074219 209.257812 117.074219 209.265625 117.074219 L 220.125 117.074219 L 220.125 356.34375 L 154.867188 356.34375 Z M 318.007812 345.195312 C 318.007812 351.339844 313.003906 356.34375 306.855469 356.34375 L 231 356.34375 L 231 193.203125 L 318.007812 193.203125 Z M 334.320312 173.589844 C 334.320312 178.40625 330.398438 182.328125 325.582031 182.328125 L 231 182.328125 L 231 117.074219 L 325.582031 117.074219 C 330.398438 117.074219 334.320312 120.992188 334.320312 125.8125 Z M 334.320312 173.589844 " fill-opacity="1" fill-rule="nonzero"/></g></svg>