<svg xmlns="http://www.w3.org/2000/svg" xmlns:xlink="http://www.w3.org/1999/xlink" width="500" zoomAndPan="magnify" viewBox="0 0 375 374.999991" height="500" preserveAspectRatio="xMidYMid meet" version="1.0"><defs><clipPath id="b040577db6"><path d="M 28.714844 10 L 345.964844 10 L 345.964844 361.5 L 28.714844 361.5 Z M 28.714844 10 " clip-rule="nonzero"/></clipPath></defs><g clip-path="url(#b040577db6)"><path fill="#000000" d="M 326.03125 98.988281 L 310.671875 98.988281 C 317.722656 91.0625 320.902344 82.980469 319.984375 74.832031 C 317.925781 56.585938 296.117188 46.050781 293.597656 44.890625 C 285.695312 40.929688 285.695312 38.25 285.695312 33.378906 C 285.695312 25.828125 284.632812 18.523438 271.753906 12.074219 C 248.238281 0.300781 207.078125 55.214844 195.472656 71.644531 L 173.796875 71.644531 C 162.210938 55.238281 121.066406 0.246094 97.511719 12.058594 C 84.632812 18.507812 83.566406 25.8125 83.566406 33.359375 C 83.566406 38.234375 83.566406 40.914062 75.675781 44.867188 C 73.425781 45.894531 51.316406 56.457031 49.238281 74.832031 C 48.316406 82.980469 51.5 91.0625 58.546875 98.988281 L 48.648438 98.988281 C 37.785156 98.988281 28.949219 107.835938 28.949219 118.714844 L 28.949219 166.761719 C 28.949219 176.5 36.050781 184.5625 45.335938 186.152344 L 45.335938 339.351562 C 45.335938 351.5625 55.257812 361.5 67.460938 361.5 L 307.222656 361.5 C 319.421875 361.5 329.347656 351.5625 329.347656 339.351562 L 329.347656 186.160156 C 338.632812 184.566406 345.730469 176.507812 345.730469 166.765625 L 345.730469 118.722656 C 345.730469 107.835938 336.894531 98.988281 326.03125 98.988281 Z M 309.128906 76.085938 C 309.917969 83.179688 305.015625 90.882812 294.667969 98.988281 L 237.011719 98.988281 C 256.355469 89.914062 281.308594 75.449219 293.222656 57.0625 C 299.460938 60.808594 308.203125 67.78125 309.128906 76.085938 Z M 154.570312 96.621094 C 140.308594 91.101562 108.304688 77.289062 91.121094 58.710938 C 108.214844 63.617188 136.878906 73.808594 154.570312 90.460938 Z M 165.492188 84.839844 C 165.492188 83.59375 166.507812 82.582031 167.75 82.582031 L 201.46875 82.582031 C 202.710938 82.582031 203.726562 83.59375 203.726562 84.839844 L 203.726562 98.988281 L 165.492188 98.988281 Z M 278.050781 58.753906 C 260.863281 77.292969 228.898438 91.097656 214.648438 96.621094 L 214.648438 90.511719 C 232.308594 73.863281 260.933594 63.671875 278.050781 58.753906 Z M 266.863281 21.859375 C 274.765625 25.820312 274.765625 28.5 274.765625 33.371094 C 274.765625 38.113281 275.1875 42.761719 278.699219 47.164062 C 262.730469 51.472656 233.40625 61.097656 212.578125 77.796875 C 211.382812 75.914062 209.722656 74.390625 207.761719 73.3125 C 226.945312 47.246094 255.886719 16.3125 266.863281 21.859375 Z M 94.492188 33.359375 C 94.492188 28.488281 94.492188 25.800781 102.394531 21.847656 C 113.433594 16.308594 142.324219 47.230469 161.496094 73.300781 C 159.527344 74.371094 157.859375 75.894531 156.65625 77.773438 C 135.835938 61.082031 106.523438 51.464844 90.558594 47.152344 C 94.070312 42.75 94.492188 38.101562 94.492188 33.359375 Z M 60.09375 76.085938 C 61.015625 67.777344 69.757812 60.808594 75.996094 57.058594 C 87.910156 75.445312 112.863281 89.910156 132.210938 98.984375 L 74.550781 98.984375 C 64.203125 90.882812 59.300781 83.179688 60.09375 76.085938 Z M 39.871094 166.765625 L 39.871094 118.722656 C 39.871094 113.871094 43.8125 109.925781 48.648438 109.925781 L 143.644531 109.925781 L 143.644531 175.554688 L 48.648438 175.554688 C 43.8125 175.554688 39.871094 171.609375 39.871094 166.765625 Z M 56.257812 339.351562 L 56.257812 186.492188 L 143.644531 186.492188 L 143.644531 350.5625 L 67.460938 350.5625 C 61.28125 350.5625 56.257812 345.53125 56.257812 339.351562 Z M 154.570312 181.023438 L 154.570312 109.925781 L 160.015625 109.925781 C 160.019531 109.925781 160.027344 109.925781 160.03125 109.925781 C 160.039062 109.925781 160.042969 109.925781 160.046875 109.925781 L 209.171875 109.925781 C 209.175781 109.925781 209.183594 109.925781 209.1875 109.925781 C 209.191406 109.925781 209.199219 109.925781 209.203125 109.925781 L 220.109375 109.925781 L 220.109375 350.5625 L 154.570312 350.5625 Z M 318.421875 339.351562 C 318.421875 345.53125 313.398438 350.5625 307.222656 350.5625 L 231.035156 350.5625 L 231.035156 186.492188 L 318.421875 186.492188 Z M 334.808594 166.765625 C 334.808594 171.609375 330.871094 175.554688 326.03125 175.554688 L 231.035156 175.554688 L 231.035156 109.925781 L 326.03125 109.925781 C 330.871094 109.925781 334.808594 113.871094 334.808594 118.714844 Z M 334.808594 166.765625 " fill-opacity="1" fill-rule="nonzero"/></g></svg>