<svg xmlns="http://www.w3.org/2000/svg" xmlns:xlink="http://www.w3.org/1999/xlink" width="500" zoomAndPan="magnify" viewBox="0 0 375 374.999991" height="500" preserveAspectRatio="xMidYMid meet" version="1.0"><defs><clipPath id="b4090d15cb"><path d="M 9.355469 47.398438 L 323 47.398438 L 323 360.945312 L 9.355469 360.945312 Z M 9.355469 47.398438 " clip-rule="nonzero"/></clipPath><clipPath id="935c3ef2d0"><path d="M 138.203125 4.695312 L 365.605469 4.695312 L 365.605469 232 L 138.203125 232 Z M 138.203125 4.695312 " clip-rule="nonzero"/></clipPath></defs><g clip-path="url(#b4090d15cb)"><path fill="#2ecc71" d="M 255.398438 293.738281 C 206.136719 343 126.003906 343.03125 76.703125 293.835938 C 27.824219 245.066406 27.273438 165.476562 75.507812 116.058594 C 114.871094 75.726562 174.613281 67.4375 222.367188 91.175781 C 224.277344 92.125 226.585938 91.757812 228.097656 90.246094 L 243.15625 75.1875 C 245.480469 72.859375 244.953125 68.945312 242.082031 67.34375 C 219.074219 54.519531 193.0625 47.695312 166 47.695312 C 124.160156 47.695312 84.820312 63.988281 55.238281 93.574219 C 25.648438 123.160156 9.355469 162.5 9.355469 204.34375 C 9.355469 245.988281 25.496094 285.15625 54.824219 314.695312 C 83.546875 343.625 122.546875 360.285156 163.3125 360.964844 C 206.980469 361.691406 248.105469 344.691406 278.503906 313.34375 C 306.847656 284.117188 322.699219 244.839844 322.644531 204.125 C 322.613281 177.136719 315.785156 151.199219 302.992188 128.253906 C 301.394531 125.382812 297.480469 124.863281 295.15625 127.1875 L 280.097656 142.246094 C 278.582031 143.757812 278.21875 146.066406 279.175781 147.984375 C 302.683594 195.292969 294.761719 254.371094 255.398438 293.738281 " fill-opacity="1" fill-rule="nonzero"/></g><path fill="#2ecc71" d="M 99.398438 137.742188 C 63.003906 174.132812 62.675781 233.140625 98.414062 269.941406 C 134.683594 307.292969 194.878906 308.023438 232.011719 271.53125 C 257.953125 246.03125 265.957031 209.164062 256.011719 176.652344 C 254.917969 173.066406 250.394531 171.945312 247.746094 174.59375 L 230.769531 191.574219 C 229.667969 192.675781 229.15625 194.226562 229.363281 195.769531 C 231.898438 214.660156 226.019531 234.476562 211.71875 249.082031 C 187.054688 274.273438 146.242188 274.664062 121.121094 249.925781 C 95.828125 225.015625 95.707031 184.167969 120.769531 159.109375 C 135.421875 144.457031 155.472656 138.414062 174.582031 140.980469 C 176.121094 141.1875 177.667969 140.675781 178.765625 139.574219 L 195.746094 122.59375 C 198.390625 119.953125 197.285156 115.429688 193.707031 114.335938 C 161.441406 104.457031 124.878906 112.261719 99.398438 137.742188 " fill-opacity="1" fill-rule="nonzero"/><g clip-path="url(#935c3ef2d0)"><path fill="#2ecc71" d="M 333.820312 43.945312 C 329.777344 43.816406 326.527344 40.566406 326.398438 36.523438 L 325.492188 8.425781 C 325.382812 5.0625 321.304688 3.449219 318.925781 5.828125 L 282.292969 42.460938 C 276.492188 48.261719 273.355469 56.199219 273.621094 64.394531 C 273.796875 69.847656 271.707031 75.128906 267.847656 78.988281 L 174.851562 171.980469 C 171.789062 175.046875 167.730469 176.863281 163.414062 177.273438 C 157.335938 177.84375 151.421875 180.457031 146.769531 185.109375 C 146.5 185.378906 146.238281 185.648438 145.980469 185.929688 C 136.441406 196.277344 136.457031 212.457031 146.015625 222.789062 C 156.558594 234.191406 174.355469 234.453125 185.234375 223.574219 C 189.878906 218.929688 192.488281 213.019531 193.070312 206.953125 C 193.480469 202.632812 195.289062 198.558594 198.363281 195.488281 L 291.355469 102.496094 C 295.210938 98.636719 300.496094 96.546875 305.949219 96.722656 C 314.144531 96.988281 322.082031 93.847656 327.882812 88.050781 L 364.511719 51.417969 C 366.894531 49.035156 365.28125 44.960938 361.917969 44.851562 L 333.820312 43.945312 " fill-opacity="1" fill-rule="nonzero"/></g></svg>