<svg xmlns="http://www.w3.org/2000/svg" xmlns:xlink="http://www.w3.org/1999/xlink" width="500" zoomAndPan="magnify" viewBox="0 0 375 374.999991" height="500" preserveAspectRatio="xMidYMid meet" version="1.0"><defs><clipPath id="087d4134d4"><path d="M 16.496094 53.453125 L 326.816406 53.453125 L 326.816406 363.703125 L 16.496094 363.703125 Z M 16.496094 53.453125 " clip-rule="nonzero"/></clipPath><clipPath id="068d5da733"><path d="M 144 11.203125 L 368.996094 11.203125 L 368.996094 236 L 144 236 Z M 144 11.203125 " clip-rule="nonzero"/></clipPath></defs><g clip-path="url(#087d4134d4)"><path fill="#000000" d="M 259.925781 297.171875 C 211.1875 345.910156 131.90625 345.941406 83.128906 297.273438 C 34.769531 249.019531 34.226562 170.273438 81.945312 121.382812 C 120.890625 81.480469 180 73.277344 227.242188 96.761719 C 229.136719 97.703125 231.417969 97.339844 232.914062 95.847656 L 247.8125 80.945312 C 250.113281 78.640625 249.589844 74.769531 246.75 73.183594 C 223.988281 60.5 198.253906 53.746094 171.476562 53.746094 C 130.078125 53.746094 91.160156 69.867188 61.890625 99.136719 C 32.613281 128.410156 16.496094 167.332031 16.496094 208.730469 C 16.496094 249.933594 32.464844 288.683594 61.480469 317.910156 C 89.898438 346.53125 128.484375 363.015625 168.816406 363.6875 C 212.023438 364.40625 252.707031 347.585938 282.785156 316.570312 C 310.828125 287.65625 326.511719 248.796875 326.457031 208.515625 C 326.425781 181.8125 319.671875 156.152344 307.015625 133.445312 C 305.433594 130.605469 301.558594 130.09375 299.261719 132.390625 L 284.363281 147.289062 C 282.863281 148.789062 282.503906 151.074219 283.449219 152.96875 C 306.707031 199.773438 298.871094 258.226562 259.925781 297.171875 " fill-opacity="1" fill-rule="nonzero"/></g><path fill="#000000" d="M 105.582031 142.835938 C 69.574219 178.839844 69.25 237.222656 104.605469 273.632812 C 140.492188 310.585938 200.046875 311.308594 236.789062 275.203125 C 262.453125 249.972656 270.371094 213.496094 260.53125 181.332031 C 259.449219 177.785156 254.976562 176.675781 252.355469 179.296875 L 235.558594 196.09375 C 234.46875 197.183594 233.960938 198.722656 234.167969 200.246094 C 236.671875 218.9375 230.855469 238.542969 216.710938 252.992188 C 192.308594 277.917969 151.929688 278.300781 127.074219 253.828125 C 102.046875 229.183594 101.933594 188.769531 126.726562 163.976562 C 141.222656 149.480469 161.0625 143.5 179.96875 146.039062 C 181.488281 146.242188 183.019531 145.738281 184.109375 144.648438 L 200.90625 127.851562 C 203.523438 125.234375 202.425781 120.757812 198.890625 119.675781 C 166.964844 109.90625 130.792969 117.625 105.582031 142.835938 " fill-opacity="1" fill-rule="nonzero"/><g clip-path="url(#068d5da733)"><path fill="#000000" d="M 337.511719 50.035156 C 333.511719 49.90625 330.296875 46.691406 330.167969 42.691406 L 329.273438 14.894531 C 329.164062 11.5625 325.132812 9.96875 322.777344 12.324219 L 286.53125 48.566406 C 280.796875 54.304688 277.691406 62.15625 277.953125 70.269531 C 278.128906 75.664062 276.058594 80.886719 272.242188 84.707031 L 180.234375 176.710938 C 177.203125 179.742188 173.1875 181.542969 168.917969 181.945312 C 162.90625 182.511719 157.050781 185.097656 152.449219 189.699219 C 152.183594 189.964844 151.925781 190.234375 151.667969 190.511719 C 142.234375 200.75 142.246094 216.757812 151.703125 226.980469 C 162.132812 238.257812 179.742188 238.519531 190.503906 227.757812 C 195.101562 223.160156 197.683594 217.3125 198.257812 211.3125 C 198.664062 207.035156 200.457031 203.007812 203.496094 199.96875 L 295.5 107.960938 C 299.316406 104.148438 304.542969 102.078125 309.9375 102.25 C 318.046875 102.511719 325.902344 99.410156 331.636719 93.671875 L 367.878906 57.429688 C 370.238281 55.074219 368.640625 51.039062 365.3125 50.933594 L 337.511719 50.035156 " fill-opacity="1" fill-rule="nonzero"/></g></svg>