<svg xmlns="http://www.w3.org/2000/svg" xmlns:xlink="http://www.w3.org/1999/xlink" width="500" zoomAndPan="magnify" viewBox="0 0 375 374.999991" height="500" preserveAspectRatio="xMidYMid meet" version="1.0"><defs><clipPath id="e8746b74e4"><path d="M 12.8125 12.8125 L 362.3125 12.8125 L 362.3125 362.3125 L 12.8125 362.3125 Z M 12.8125 12.8125 " clip-rule="nonzero"/></clipPath></defs><g clip-path="url(#e8746b74e4)"><path fill="#2ecc71" d="M 356.523438 362.160156 L 18.5 362.160156 C 15.441406 362.160156 12.960938 359.679688 12.960938 356.617188 L 12.960938 325.042969 C 12.960938 272.503906 55.703125 229.765625 108.238281 229.765625 L 266.789062 229.765625 C 319.324219 229.765625 362.066406 272.503906 362.066406 325.042969 L 362.066406 356.617188 C 362.066406 359.679688 359.585938 362.160156 356.523438 362.160156 Z M 187.511719 214.867188 C 131.804688 214.867188 86.484375 169.546875 86.484375 113.839844 C 86.484375 58.132812 131.804688 12.8125 187.511719 12.8125 C 243.21875 12.8125 288.539062 58.132812 288.539062 113.839844 C 288.539062 169.546875 243.21875 214.867188 187.511719 214.867188 Z M 187.511719 214.867188 " fill-opacity="1" fill-rule="nonzero"/></g></svg>