<svg xmlns="http://www.w3.org/2000/svg" xmlns:xlink="http://www.w3.org/1999/xlink" width="500" zoomAndPan="magnify" viewBox="0 0 375 374.999991" height="500" preserveAspectRatio="xMidYMid meet" version="1.0"><defs><clipPath id="6294aece20"><path d="M 12 13.886719 L 361.375 13.886719 L 361.375 363.386719 L 12 363.386719 Z M 12 13.886719 " clip-rule="nonzero"/></clipPath></defs><g clip-path="url(#6294aece20)"><path fill="#000000" d="M 355.710938 363.359375 L 17.566406 363.359375 C 14.503906 363.359375 12.023438 360.878906 12.023438 357.816406 L 12.023438 326.230469 C 12.023438 273.675781 54.777344 230.917969 107.332031 230.917969 L 265.941406 230.917969 C 318.496094 230.917969 361.253906 273.675781 361.253906 326.230469 L 361.253906 357.816406 C 361.253906 360.878906 358.773438 363.359375 355.710938 363.359375 Z M 186.636719 216.015625 C 130.910156 216.015625 85.574219 170.679688 85.574219 114.949219 C 85.574219 59.222656 130.910156 13.886719 186.636719 13.886719 C 242.363281 13.886719 287.703125 59.222656 287.703125 114.949219 C 287.703125 170.679688 242.363281 216.015625 186.636719 216.015625 Z M 186.636719 216.015625 " fill-opacity="1" fill-rule="nonzero"/></g></svg>