<svg xmlns="http://www.w3.org/2000/svg" xmlns:xlink="http://www.w3.org/1999/xlink" width="500" zoomAndPan="magnify" viewBox="0 0 375 374.999991" height="500" preserveAspectRatio="xMidYMid meet" version="1.0"><defs><g/><clipPath id="1f2dc3a2fd"><path d="M 11 8 L 360 8 L 360 360.75 L 11 360.75 Z M 11 8 " clip-rule="nonzero"/></clipPath><clipPath id="45bc1e9a94"><path d="M 143.570312 130.015625 L 226.070312 130.015625 L 226.070312 230.515625 L 143.570312 230.515625 Z M 143.570312 130.015625 " clip-rule="nonzero"/></clipPath><clipPath id="8092f99891"><path d="M 144 137 L 226.070312 137 L 226.070312 230.515625 L 144 230.515625 Z M 144 137 " clip-rule="nonzero"/></clipPath><clipPath id="3c2b86b651"><path d="M 143.570312 130.015625 L 218 130.015625 L 218 223 L 143.570312 223 Z M 143.570312 130.015625 " clip-rule="nonzero"/></clipPath></defs><rect x="-37.5" width="450" fill="#ffffff" y="-37.499999" height="449.999989" fill-opacity="1"/><rect x="-37.5" width="450" fill="#ff5757" y="-37.499999" height="449.999989" fill-opacity="1"/><path fill="#b6b6b7" d="M 297.152344 36.6875 C 297.292969 35.972656 297.429688 35.261719 297.460938 34.582031 C 298.101562 27.808594 295.894531 21.625 290.238281 17.601562 C 277.792969 8.628906 257.738281 22.085938 255.355469 35.652344 C 254.246094 41.796875 256.097656 52.257812 259.675781 57.40625 C 262.980469 63.191406 274.433594 65.203125 271.054688 55.453125 C 268.4375 48.835938 263.3125 42.21875 265.625 34.722656 C 266.984375 28.617188 274.074219 23.433594 279.972656 27.191406 C 283.15625 28.910156 285.269531 32.335938 285.285156 35.960938 C 285.269531 36.273438 285.257812 36.601562 285.242188 36.929688 C 289.210938 36.832031 293.183594 36.75 297.152344 36.6875 Z M 297.152344 36.6875 " fill-opacity="1" fill-rule="nonzero"/><path fill="#b6b6b7" d="M 205.164062 40.570312 C 207.972656 40.410156 210.789062 40.25 213.601562 40.09375 C 213.890625 35.039062 212.050781 29.886719 208.882812 25.976562 C 205.425781 22.132812 199.691406 21.335938 194.824219 22.28125 C 183.085938 24.636719 173.894531 36.390625 173.523438 48.21875 C 173.429688 54.199219 175.550781 60.316406 180.246094 64.203125 C 182.375 65.996094 185.140625 67.855469 188.046875 67.195312 C 187.984375 67.21875 187.921875 67.238281 187.859375 67.261719 C 187.851562 67.265625 187.839844 67.265625 187.65625 67.332031 C 191.378906 66.359375 188.867188 60.5625 188.277344 58.027344 C 187.050781 54.441406 184.460938 51.550781 183.03125 48.066406 C 180.003906 40.273438 184.398438 31.492188 192.703125 29.789062 C 199.765625 28.621094 204.546875 34.175781 205.164062 40.570312 Z M 205.164062 40.570312 " fill-opacity="1" fill-rule="nonzero"/><g clip-path="url(#1f2dc3a2fd)"><path fill="#332c2b" d="M 123.953125 44.429688 C 138.519531 43.988281 153.089844 43.546875 167.636719 42.679688 L 167.75 42.671875 C 169.878906 32.136719 177.402344 22.722656 187.054688 18.074219 C 200.296875 12.128906 214.511719 16.460938 218.777344 31.113281 C 219.675781 33.882812 220.117188 36.820312 220.03125 39.730469 C 229.578125 39.210938 239.125 38.710938 248.671875 38.265625 C 248.859375 34.527344 249.710938 30.847656 251.4375 27.414062 C 259.675781 11.019531 284.613281 0.0351562 298.277344 16.378906 C 300.289062 18.621094 301.902344 21.3125 302.785156 24.199219 C 303.472656 26.203125 304.335938 32.101562 303.777344 36.601562 L 304.863281 36.589844 C 312.832031 36.65625 320.242188 37.394531 328.035156 37.984375 C 335.492188 37.636719 338.96875 40.839844 340.492188 45.523438 C 347.542969 48.96875 355.582031 57.695312 357.503906 62.246094 C 360.753906 71.8125 358.816406 82.273438 358.828125 92.183594 C 358.433594 105.925781 358.664062 119.679688 358.722656 133.425781 C 358.210938 182.132812 356.851562 230.847656 354.796875 279.511719 C 354.132812 289.75 353.28125 299.980469 352.601562 310.214844 C 351.78125 320.269531 351.667969 330.832031 346.027344 339.613281 C 334.929688 357.980469 310.777344 355.523438 292.183594 357.558594 C 266.714844 359.667969 241.113281 360.792969 215.542969 360.792969 C 212.941406 360.792969 210.34375 360.78125 207.746094 360.757812 C 165.980469 360.144531 124.167969 360.15625 82.511719 356.722656 C 68.609375 355.867188 54.28125 355.363281 43.230469 345.703125 C 31.585938 334.828125 27.304688 331.167969 34.828125 315.289062 C 36.511719 311.40625 38.601562 307.675781 41.3125 304.453125 C 39.75 304.332031 38.1875 304.210938 36.628906 304.09375 C 31.554688 303.5625 26.5 302.785156 21.527344 301.648438 C 11.777344 300.132812 9.003906 295.414062 13.699219 286.320312 C 18.867188 275.945312 26.441406 266.90625 30.882812 256.148438 C 37.378906 239.734375 40.421875 221.972656 42.136719 204.460938 C 43.632812 169.636719 41.03125 134.734375 40.105469 100 C 40.140625 89.351562 38.785156 78.757812 38.894531 68.113281 C 39.035156 54.117188 39.375 45.949219 56.179688 47.960938 C 59.445312 47.644531 62.714844 47.355469 65.980469 47.097656 C 66.132812 41.296875 67.738281 35.496094 70.695312 30.511719 C 80.355469 13.226562 106.113281 8.609375 118.699219 25.257812 C 122.773438 30.699219 124.699219 37.679688 123.953125 44.429688 Z M 91.183594 45.574219 C 94.941406 45.40625 98.703125 45.25 102.46875 45.113281 C 102.410156 44.226562 102.238281 43.355469 101.902344 42.503906 C 99.976562 37.386719 94.621094 36.320312 91.972656 41.53125 C 91.394531 42.90625 91.164062 44.246094 91.183594 45.574219 Z M 188.621094 41.515625 C 191.988281 41.324219 195.359375 41.128906 198.726562 40.9375 C 198.089844 36.769531 195.269531 34.097656 190.71875 37.738281 C 189.515625 38.683594 188.859375 40.050781 188.621094 41.515625 Z M 278.761719 37.109375 C 278.800781 36.972656 278.839844 36.835938 278.886719 36.699219 C 279.105469 34.875 278.0625 33.253906 276.402344 32.535156 C 275.234375 31.875 274.03125 32.828125 273.234375 33.652344 C 272.304688 34.714844 271.792969 35.992188 271.597656 37.335938 C 273.984375 37.253906 276.375 37.179688 278.761719 37.109375 Z M 278.761719 37.109375 " fill-opacity="1" fill-rule="nonzero"/></g><path fill="#b6b6b7" d="M 108.910156 44.894531 C 111.765625 44.800781 114.625 44.710938 117.480469 44.625 C 119.785156 29.425781 105.179688 17.039062 90.25 22.503906 C 76.433594 26.429688 69.226562 43.007812 73.617188 56.234375 C 75.210938 60.707031 78.0625 65.121094 82.234375 67.542969 C 85.457031 69.339844 90.347656 68.664062 90.496094 64.246094 C 90.480469 62.0625 89.359375 60.085938 88.519531 58.121094 C 85.445312 51.726562 82.667969 43.679688 87.085938 37.238281 C 90.804688 31.242188 99.269531 29.570312 104.328125 34.882812 C 106.144531 36.625 107.472656 38.796875 108.199219 41.199219 C 108.484375 42.191406 108.789062 43.535156 108.910156 44.894531 Z M 108.910156 44.894531 " fill-opacity="1" fill-rule="nonzero"/><path fill="#e62129" d="M 46.65625 102.734375 C 50.238281 101.636719 53.839844 100.308594 57.671875 100.496094 C 68.042969 100.328125 78.449219 100.414062 88.777344 99.308594 C 104.949219 97.472656 121.242188 97.085938 137.480469 96.03125 C 163.007812 94.816406 188.578125 95.566406 214.109375 94.550781 C 239.570312 93.289062 265.074219 93.058594 290.558594 92.660156 C 302.996094 92.984375 315.429688 93.082031 327.863281 92.9375 C 330.183594 93.015625 332.476562 93.421875 334.726562 93.996094 C 334.632812 91.871094 334.53125 89.746094 334.425781 87.621094 C 334.199219 77.980469 334.300781 68.339844 334.921875 58.714844 C 334.898438 54.257812 336.304688 48.574219 332.972656 45.097656 C 313.441406 42.210938 293.65625 42.804688 273.996094 43.757812 L 272.679688 43.796875 C 274.640625 48.429688 277.78125 52.71875 277.972656 57.898438 C 278.667969 64.226562 273.746094 68.6875 267.925781 68.6875 C 267.136719 68.6875 266.332031 68.605469 265.519531 68.4375 C 255.808594 66.933594 250.824219 56.855469 249.539062 47.996094 C 249.304688 46.90625 249.109375 45.808594 248.960938 44.710938 C 229.316406 45.578125 209.6875 46.691406 190.050781 47.804688 C 191.214844 49.824219 192.589844 51.734375 193.5 53.894531 C 195.257812 58.386719 197.054688 63.667969 195.292969 68.410156 C 194.007812 71.703125 190.605469 73.75 187.132812 73.75 C 186.964844 73.75 186.796875 73.746094 186.628906 73.738281 C 180.949219 73.582031 176.230469 69.753906 172.722656 65.597656 C 168.949219 60.984375 167.289062 54.972656 167.144531 49.085938 C 165.425781 49.175781 163.707031 49.269531 161.984375 49.363281 C 138.929688 50.644531 115.824219 50.890625 92.757812 51.898438 C 94.492188 56.027344 97.023438 60.113281 96.882812 64.492188 C 96.765625 70.613281 91.589844 74.933594 85.886719 74.933594 C 84.878906 74.933594 83.859375 74.796875 82.84375 74.515625 C 79.566406 73.714844 76.65625 71.933594 74.378906 69.445312 C 70.007812 65.054688 67.394531 59.425781 66.414062 53.480469 C 64.203125 53.65625 61.992188 53.84375 59.777344 54.050781 C 43.9375 55.675781 46.105469 50.296875 45.28125 69.117188 C 45.507812 80.332031 46.320312 91.519531 46.65625 102.734375 Z M 46.65625 102.734375 " fill-opacity="1" fill-rule="nonzero"/><path fill="#fefefe" d="M 50.851562 106.414062 C 50.015625 106.246094 48.265625 105.839844 46.722656 105.289062 C 46.761719 107.058594 46.789062 108.832031 46.796875 110.605469 C 47.757812 134.714844 48.992188 158.546875 48.941406 182.640625 C 49.511719 207.179688 46.25 231.933594 38.164062 255.164062 C 34.863281 264.320312 29.480469 272.460938 24.285156 280.617188 C 21.957031 284.917969 18.523438 289.046875 17.890625 293.980469 C 35.859375 299.394531 55 298.648438 73.515625 300.675781 C 109.890625 304.628906 146.371094 307.847656 182.929688 309.140625 C 210.734375 309.550781 238.484375 312.488281 266.292969 311.738281 C 275.953125 311.03125 285.890625 311.042969 295.273438 308.449219 C 299.476562 305.410156 302.648438 301.183594 306.003906 297.28125 C 322.59375 277.113281 330.21875 251.390625 332.359375 225.691406 C 333.804688 207.761719 335.824219 189.863281 335.960938 171.855469 C 336.355469 147.15625 335.941406 122.472656 334.894531 97.796875 C 332.644531 98.582031 330.273438 99.054688 327.933594 99.257812 C 315.335938 99.621094 302.722656 99.292969 290.121094 99.050781 C 269.289062 99.265625 248.445312 99.808594 227.613281 100.292969 C 197.957031 102.101562 168.230469 101.128906 138.5625 102.375 C 125.933594 103.054688 113.3125 103.792969 100.691406 104.542969 C 90.929688 105.480469 81.1875 106.683594 71.363281 106.660156 C 69.1875 106.648438 67.003906 106.722656 64.820312 106.800781 C 62.789062 106.875 60.757812 106.945312 58.730469 106.945312 C 56.089844 106.945312 53.457031 106.824219 50.851562 106.414062 Z M 50.851562 106.414062 " fill-opacity="1" fill-rule="nonzero"/><path fill="#e62129" d="M 352.328125 101.5625 C 352.429688 92.625 352.621094 83.691406 352.925781 74.757812 C 352.96875 65.832031 351.472656 62.199219 344.371094 56.246094 C 343.398438 55.429688 342.460938 54.582031 341.558594 53.699219 C 341.582031 58.070312 341.058594 62.675781 340.921875 66.558594 C 340.53125 75.738281 340.691406 84.925781 341.054688 94.101562 C 341.761719 94.289062 342.433594 94.539062 343.03125 94.832031 C 346.515625 96.804688 349.492188 99.054688 352.328125 101.5625 Z M 352.328125 101.5625 " fill-opacity="1" fill-rule="nonzero"/><path fill="#fefefe" d="M 38.886719 331.914062 C 40.535156 334.171875 42.617188 336.160156 44.460938 338.226562 C 51.027344 344.734375 59.742188 348.683594 68.976562 349.195312 C 82.847656 350.527344 96.773438 351.308594 110.675781 352.15625 C 131.480469 353.445312 152.328125 353.460938 173.15625 353.863281 C 203.847656 354.601562 234.5625 354.75 265.222656 352.980469 C 279.28125 352.429688 293.292969 351.082031 307.308594 349.929688 C 317.875 349.054688 329.671875 348.417969 337.515625 340.34375 C 346.582031 330.582031 345.390625 316.449219 346.625 304.09375 C 348.289062 283.390625 349.4375 262.65625 349.820312 241.886719 C 350.769531 207.191406 352.070312 172.511719 352.324219 137.804688 C 352.230469 127.992188 352.199219 118.175781 352.265625 108.363281 C 352.105469 108.316406 351.949219 108.269531 351.792969 108.21875 C 347.769531 106.828125 344.953125 103.382812 341.363281 101.214844 C 341.472656 103.511719 341.585938 105.808594 341.703125 108.101562 C 342.722656 139.203125 343.261719 170.4375 340.867188 201.480469 C 341.160156 202.867188 341.324219 204.277344 341.355469 205.6875 C 341.226562 220.664062 339.503906 235.578125 339.246094 250.554688 C 338.722656 266.390625 337.566406 282.316406 334.214844 297.808594 C 332.753906 304.183594 330.984375 310.46875 329.148438 316.734375 C 328.15625 320.761719 326.46875 324.726562 323.25 327.472656 C 308.164062 339.164062 279.492188 337.820312 260.90625 338.039062 C 244.300781 337.710938 227.695312 337.324219 211.085938 337.816406 C 194.605469 338.121094 178.132812 337.847656 161.65625 337.578125 C 144.59375 337.296875 127.53125 337.011719 110.46875 337.375 C 87.289062 337.617188 63.871094 337.285156 41.09375 332.652344 C 40.347656 332.4375 39.613281 332.1875 38.886719 331.914062 Z M 38.886719 331.914062 " fill-opacity="1" fill-rule="nonzero"/><path fill="#fefefe" d="M 241.851562 318.039062 C 206.769531 316.007812 171.601562 315.648438 136.554688 312.996094 C 106.265625 310.632812 75.90625 307.269531 45.65625 304.804688 C 45.304688 306.769531 44.726562 308.859375 44.242188 310.28125 C 42.164062 315.871094 38.113281 321.277344 37.585938 327.300781 C 37.949219 327.25 38.3125 327.195312 38.679688 327.15625 C 46.449219 326.414062 54.125 328.695312 61.847656 329.308594 C 68.3125 329.984375 74.800781 330.46875 81.300781 330.742188 C 92.765625 331.167969 104.242188 331.03125 115.71875 330.898438 C 124.125 330.800781 132.535156 330.699219 140.941406 330.824219 C 171.113281 331.601562 201.296875 331.679688 231.46875 331.144531 C 254.503906 331.179688 277.847656 333.121094 300.703125 329.515625 C 307.609375 328.054688 315.46875 326.710938 320.390625 321.214844 C 322.710938 317.9375 323.164062 313.785156 324.433594 310.046875 C 329.507812 293.742188 331.46875 276.84375 332.445312 259.871094 C 326.570312 279.585938 316.652344 297.695312 300.507812 312.507812 C 296.074219 316.238281 289.6875 316.027344 284.214844 316.835938 C 274.664062 317.875 265.066406 318.300781 255.464844 318.300781 C 250.925781 318.300781 246.390625 318.203125 241.851562 318.039062 Z M 241.851562 318.039062 " fill-opacity="1" fill-rule="nonzero"/><path fill="#bcbcbc" d="M 90.25 22.507812 C 105.179688 17.042969 119.789062 29.429688 117.484375 44.628906 C 114.625 44.714844 111.765625 44.800781 108.90625 44.894531 C 108.789062 43.539062 108.484375 42.195312 108.199219 41.203125 C 107.472656 38.800781 106.144531 36.628906 104.328125 34.886719 C 99.269531 29.574219 90.804688 31.246094 87.085938 37.238281 C 82.667969 43.679688 85.445312 51.730469 88.519531 58.125 C 89.359375 60.085938 90.484375 62.066406 90.496094 64.25 C 90.34375 68.667969 85.457031 69.34375 82.234375 67.546875 C 78.0625 65.125 75.210938 60.710938 73.617188 56.238281 C 69.226562 43.011719 76.433594 26.433594 90.25 22.507812 Z M 90.25 22.507812 " fill-opacity="1" fill-rule="nonzero"/><path fill="#bcbcbc" d="M 208.878906 25.976562 C 212.054688 29.890625 213.890625 35.039062 213.597656 40.09375 C 210.789062 40.25 207.972656 40.410156 205.160156 40.566406 C 204.546875 34.175781 199.765625 28.625 192.703125 29.792969 C 184.398438 31.496094 180.003906 40.277344 183.03125 48.070312 C 184.460938 51.554688 187.050781 54.441406 188.277344 58.03125 C 188.867188 60.5625 191.378906 66.359375 187.652344 67.332031 C 187.839844 67.265625 187.847656 67.265625 187.859375 67.261719 C 187.921875 67.238281 187.984375 67.21875 188.046875 67.195312 C 185.140625 67.855469 182.375 65.996094 180.242188 64.207031 C 175.550781 60.316406 173.429688 54.199219 173.523438 48.21875 C 173.894531 36.390625 183.085938 24.640625 194.824219 22.285156 C 199.691406 21.335938 205.425781 22.132812 208.882812 25.976562 Z M 208.878906 25.976562 " fill-opacity="1" fill-rule="nonzero"/><path fill="#bcbcbc" d="M 290.242188 17.605469 C 295.898438 21.632812 298.105469 27.8125 297.464844 34.585938 C 297.433594 35.265625 297.296875 35.976562 297.15625 36.6875 C 293.1875 36.75 289.214844 36.832031 285.246094 36.933594 C 285.257812 36.605469 285.273438 36.273438 285.289062 35.964844 C 285.273438 32.335938 283.160156 28.914062 279.976562 27.195312 C 274.078125 23.433594 266.988281 28.617188 265.628906 34.726562 C 263.316406 42.21875 268.441406 48.839844 271.058594 55.453125 C 274.4375 65.203125 262.984375 63.195312 259.679688 57.40625 C 256.097656 52.257812 254.25 41.796875 255.359375 35.652344 C 257.742188 22.089844 277.796875 8.632812 290.242188 17.605469 Z M 290.242188 17.605469 " fill-opacity="1" fill-rule="nonzero"/><path fill="#000000" d="M 318.316406 121.460938 C 312.46875 120.125 308.167969 114.753906 308.015625 108.804688 C 314.457031 108.636719 318.898438 115.480469 318.316406 121.460938 Z M 318.316406 121.460938 " fill-opacity="1" fill-rule="nonzero"/><path fill="#000000" d="M 310.738281 131.902344 C 308.042969 131.027344 305.527344 127.5 306.847656 124.8125 C 310.820312 124.140625 314.632812 128.449219 313.636719 132.3125 C 312.664062 132.476562 311.664062 132.238281 310.738281 131.902344 Z M 310.738281 131.902344 " fill-opacity="1" fill-rule="nonzero"/><path fill="#000000" d="M 290.339844 295.011719 C 283.949219 293.617188 276.976562 287.503906 278.132812 280.433594 C 284.515625 282.042969 290.4375 288.207031 290.339844 295.011719 Z M 290.339844 295.011719 " fill-opacity="1" fill-rule="nonzero"/><path fill="#000000" d="M 296.945312 289.488281 C 294.691406 287.863281 293.675781 284.425781 295.15625 281.996094 C 299.164062 281.808594 301.28125 287.476562 299.046875 290.46875 C 298.269531 290.355469 297.5625 289.96875 296.945312 289.488281 Z M 296.945312 289.488281 " fill-opacity="1" fill-rule="nonzero"/><path fill="#000000" d="M 36.609375 281.957031 C 38.425781 275.820312 45.078125 269.1875 51.492188 268.039062 C 51.882812 274.613281 43.394531 283.875 36.609375 281.957031 Z M 36.609375 281.957031 " fill-opacity="1" fill-rule="nonzero"/><path fill="#000000" d="M 48.898438 286.6875 C 48.199219 286.550781 48.414062 285.5625 48.511719 285.074219 C 49.011719 282.578125 51.804688 280.574219 54.308594 281.25 C 55.191406 284.242188 51.960938 287.675781 48.898438 286.6875 Z M 48.898438 286.6875 " fill-opacity="1" fill-rule="nonzero"/><path fill="#000000" d="M 58.65625 138.851562 C 58.464844 132.15625 64.082031 126.769531 70.046875 124.695312 C 71.070312 131.261719 65.21875 138.332031 58.65625 138.851562 Z M 58.65625 138.851562 " fill-opacity="1" fill-rule="nonzero"/><path fill="#000000" d="M 68.617188 141.378906 C 68.539062 141.367188 67.894531 141.253906 67.921875 141.113281 C 67.921875 141.117188 67.921875 141.117188 67.921875 141.117188 C 67.09375 137.789062 70.398438 134.4375 73.699219 134.714844 C 73.882812 134.75 73.847656 134.761719 73.917969 134.960938 C 74.804688 138.117188 71.949219 141.769531 68.617188 141.375 Z M 68.617188 141.378906 " fill-opacity="1" fill-rule="nonzero"/><path fill="#000000" d="M 151.375 293.417969 C 153.621094 287.570312 159.988281 283.261719 166.304688 283.695312 C 164.8125 289.949219 157.914062 295.570312 151.375 293.414062 Z M 151.375 293.417969 " fill-opacity="1" fill-rule="nonzero"/><path fill="#000000" d="M 177.625 298.996094 C 175.382812 298.976562 176.808594 296.179688 178.03125 295.609375 C 178.992188 295.097656 180.46875 294.789062 181.386719 295.5 C 181.679688 297.457031 179.523438 299.246094 177.625 298.996094 Z M 177.625 298.996094 " fill-opacity="1" fill-rule="nonzero"/><path fill="#000000" d="M 290.65625 27.03125 C 288.605469 26.03125 286.515625 25.117188 285.285156 23.171875 C 284.6875 22.316406 284.292969 21.363281 283.847656 20.433594 C 285.09375 18.636719 288.015625 19.214844 289.664062 20.15625 C 291.128906 21.023438 292.128906 22.609375 292.417969 24.277344 C 292.601562 25.371094 292.386719 26.59375 291.664062 27.457031 C 291.292969 27.34375 290.96875 27.183594 290.65625 27.03125 Z M 290.65625 27.03125 " fill-opacity="1" fill-rule="nonzero"/><path fill="#000000" d="M 202.542969 29.492188 C 200.996094 28.859375 199.496094 27.445312 198.785156 26.011719 C 198.566406 25.574219 198.3125 25.101562 198.253906 24.613281 C 199.578125 23.105469 202.050781 23.382812 203.671875 24.226562 C 205.710938 25.34375 207.070312 28.210938 206.058594 30.414062 C 204.863281 30.433594 203.621094 29.972656 202.546875 29.492188 Z M 202.542969 29.492188 " fill-opacity="1" fill-rule="nonzero"/><path fill="#000000" d="M 105.78125 30.523438 C 104.101562 30.046875 102.441406 29.234375 101.433594 27.757812 C 100.492188 26.242188 99.539062 25.476562 101.777344 24.667969 C 104.390625 23.785156 107.476562 25.511719 108.1875 28.152344 C 108.796875 30.828125 108.304688 31.355469 105.671875 30.488281 Z M 105.78125 30.523438 " fill-opacity="1" fill-rule="nonzero"/><path fill="#000000" d="M 274.1875 87.261719 C 271.78125 87.148438 269.375 87.328125 266.976562 87.203125 C 264.675781 87.023438 262.492188 86.164062 260.617188 84.851562 C 260.894531 84.261719 261.554688 83.800781 262.046875 83.390625 C 264.128906 81.671875 266.835938 80.761719 269.53125 80.84375 C 275.328125 81.117188 281.835938 79.6875 286.839844 83.347656 C 283.578125 86.8125 278.722656 87.527344 274.1875 87.261719 Z M 274.1875 87.261719 " fill-opacity="1" fill-rule="nonzero"/><path fill="#000000" d="M 283.371094 76.410156 C 281.726562 75.21875 284.425781 73.785156 285.628906 74.09375 C 286.433594 74.234375 287.492188 74.664062 287.75 75.5 C 287.078125 77.101562 284.652344 77.5 283.371094 76.410156 Z M 283.371094 76.410156 " fill-opacity="1" fill-rule="nonzero"/><path fill="#000000" d="M 108.359375 58.496094 C 108.101562 58.363281 107.902344 58.1875 107.652344 58.085938 C 109.664062 54.921875 113.648438 53.585938 117.285156 53.699219 C 121.40625 53.578125 125.535156 53.574219 129.660156 53.492188 C 133.09375 53.300781 136.679688 54.234375 139.316406 56.507812 C 137.453125 58.105469 135.082031 59.175781 132.679688 59.664062 C 127.210938 60.25 121.648438 59.777344 116.152344 60.144531 C 113.484375 60.273438 110.703125 59.816406 108.359375 58.496094 Z M 108.359375 58.496094 " fill-opacity="1" fill-rule="nonzero"/><path fill="#000000" d="M 124.019531 68.714844 C 122.6875 68.648438 119.269531 67.15625 121.101562 65.625 C 123.164062 63.496094 127.121094 63.953125 128.691406 66.421875 C 127.878906 68.046875 125.773438 68.8125 124.019531 68.714844 Z M 124.019531 68.714844 " fill-opacity="1" fill-rule="nonzero"/><path fill="#000000" d="M 61.0625 92.46875 C 58.601562 92.335938 56.164062 91.421875 54.199219 89.96875 C 56.847656 86.523438 61.378906 85.953125 65.433594 85.800781 C 69.917969 85.214844 74.882812 85.320312 78.367188 88.59375 C 73.574219 92.601562 66.921875 92.023438 61.0625 92.46875 Z M 61.0625 92.46875 " fill-opacity="1" fill-rule="nonzero"/><g clip-path="url(#45bc1e9a94)"><path fill="#78c634" d="M 226.058594 198.382812 C 226.058594 219.882812 206.445312 230.515625 186.953125 230.515625 C 176.085938 230.515625 163.578125 227.671875 153.613281 222.929688 C 153.460938 222.859375 153.328125 222.757812 153.210938 222.648438 L 153.207031 222.652344 L 144.371094 215.175781 L 144.375 215.175781 C 143.832031 214.75 143.605469 214.015625 143.867188 213.347656 L 152.597656 191.242188 C 152.984375 190.253906 154.214844 189.921875 155.050781 190.578125 C 160.910156 195.117188 167.964844 198.820312 175.5 198.820312 C 178.074219 198.820312 181.851562 197.980469 183.285156 195.585938 L 178.9375 194.796875 C 172.40625 193.640625 166.40625 191.105469 162.097656 187.03125 L 154.980469 181.027344 C 154.410156 180.585938 153.859375 180.125 153.335938 179.640625 C 153.324219 179.628906 153.3125 179.617188 153.300781 179.605469 C 149.082031 175.691406 146.441406 170.324219 146.441406 163.34375 C 146.441406 141.960938 165.933594 130.015625 185.546875 130.015625 C 195.386719 130.015625 204.457031 132.308594 212.972656 137.214844 C 213.039062 137.253906 213.101562 137.300781 213.160156 137.347656 C 213.164062 137.351562 213.171875 137.355469 213.179688 137.359375 C 213.195312 137.375 213.210938 137.386719 213.226562 137.402344 L 222 144.839844 C 222.605469 145.246094 222.851562 146.027344 222.585938 146.714844 L 214.921875 166.683594 C 214.5625 167.617188 213.441406 167.988281 212.59375 167.453125 C 207.386719 164.15625 201.589844 161.710938 195.203125 161.710938 C 193.101562 161.710938 190.300781 162.289062 188.949219 164.054688 L 193.199219 165.015625 C 199.113281 166.339844 204.328125 168.449219 208.371094 171.613281 C 208.398438 171.632812 208.425781 171.65625 208.453125 171.675781 C 208.914062 172.042969 209.359375 172.421875 209.789062 172.8125 L 216.941406 178.894531 C 217.722656 179.484375 218.460938 180.109375 219.152344 180.773438 L 219.324219 180.917969 L 219.308594 180.917969 C 223.546875 185.070312 226.058594 190.742188 226.058594 198.382812 Z M 226.058594 198.382812 " fill-opacity="1" fill-rule="nonzero"/></g><g clip-path="url(#8092f99891)"><path fill="#000000" d="M 226.058594 198.382812 C 226.058594 219.882812 206.445312 230.515625 186.953125 230.515625 C 176.085938 230.515625 163.578125 227.671875 153.613281 222.929688 C 153.460938 222.859375 153.328125 222.757812 153.210938 222.648438 L 153.207031 222.652344 L 144.371094 215.175781 L 144.375 215.175781 C 144.46875 215.246094 144.566406 215.3125 144.675781 215.367188 C 154.636719 220.109375 167.144531 222.949219 178.011719 222.949219 C 197.503906 222.949219 217.117188 212.316406 217.117188 190.816406 C 217.117188 182.835938 214.378906 177.007812 209.789062 172.8125 L 216.941406 178.894531 C 217.722656 179.484375 218.460938 180.109375 219.152344 180.773438 L 219.324219 180.917969 L 219.308594 180.917969 C 223.550781 185.070312 226.058594 190.742188 226.058594 198.382812 Z M 176.578125 188.425781 L 170 187.230469 C 164.34375 186.230469 159.085938 184.195312 154.980469 181.027344 L 162.097656 187.03125 C 166.40625 191.105469 172.40625 193.640625 178.941406 194.796875 L 183.285156 195.585938 C 183.652344 194.976562 183.871094 194.269531 183.871094 193.445312 C 183.871094 189.382812 179.566406 189.023438 176.578125 188.425781 Z M 213.648438 139.148438 L 205.984375 159.117188 C 205.625 160.054688 204.5 160.421875 203.652344 159.886719 C 198.445312 156.589844 192.648438 154.144531 186.265625 154.144531 C 183.394531 154.144531 179.207031 155.21875 179.207031 158.921875 C 179.207031 162.265625 183.273438 162.746094 185.785156 163.34375 L 188.949219 164.054688 C 190.300781 162.292969 193.101562 161.710938 195.203125 161.710938 C 201.589844 161.710938 207.386719 164.15625 212.59375 167.453125 C 213.441406 167.988281 214.5625 167.617188 214.921875 166.683594 L 222.585938 146.714844 C 222.851562 146.027344 222.605469 145.246094 222 144.839844 L 213.226562 137.402344 C 213.710938 137.832031 213.886719 138.527344 213.648438 139.148438 Z M 213.648438 139.148438 " fill-opacity="1" fill-rule="nonzero"/></g><g clip-path="url(#3c2b86b651)"><path fill="#78c634" d="M 178.011719 222.949219 C 197.503906 222.949219 217.117188 212.316406 217.117188 190.816406 C 217.117188 182.835938 214.378906 177.007812 209.789062 172.8125 C 209.359375 172.421875 208.914062 172.042969 208.453125 171.675781 C 208.425781 171.65625 208.398438 171.632812 208.371094 171.613281 C 204.328125 168.449219 199.113281 166.339844 193.199219 165.015625 L 188.949219 164.054688 L 185.785156 163.34375 C 183.273438 162.746094 179.207031 162.265625 179.207031 158.921875 C 179.207031 155.21875 183.394531 154.144531 186.265625 154.144531 C 192.648438 154.144531 198.445312 156.589844 203.65625 159.886719 C 204.5 160.421875 205.625 160.054688 205.984375 159.117188 L 213.648438 139.148438 C 213.886719 138.527344 213.710938 137.832031 213.226562 137.402344 C 213.210938 137.386719 213.195312 137.375 213.179688 137.359375 C 213.171875 137.355469 213.164062 137.351562 213.160156 137.347656 C 213.101562 137.300781 213.039062 137.253906 212.972656 137.214844 C 204.457031 132.308594 195.386719 130.015625 185.546875 130.015625 C 165.933594 130.015625 146.441406 141.960938 146.441406 163.34375 C 146.441406 170.324219 149.082031 175.6875 153.300781 179.605469 C 153.316406 179.617188 153.324219 179.628906 153.339844 179.640625 C 153.863281 180.125 154.410156 180.585938 154.980469 181.027344 C 159.085938 184.195312 164.34375 186.230469 170 187.230469 L 176.578125 188.425781 C 179.566406 189.023438 183.871094 189.382812 183.871094 193.445312 C 183.871094 194.269531 183.652344 194.976562 183.285156 195.585938 C 181.851562 197.980469 178.074219 198.820312 175.5 198.820312 C 167.96875 198.820312 160.910156 195.117188 155.050781 190.578125 C 154.214844 189.921875 152.984375 190.253906 152.597656 191.242188 L 143.867188 213.347656 C 143.605469 214.015625 143.832031 214.75 144.375 215.175781 C 144.46875 215.246094 144.566406 215.3125 144.675781 215.367188 C 154.636719 220.109375 167.144531 222.949219 178.011719 222.949219 Z M 206.304688 209.105469 C 205.199219 210.242188 203.414062 210.132812 202.292969 209.105469 C 201.15625 208.0625 201.257812 206.160156 202.292969 205.097656 C 202.816406 204.5625 203.320312 204.007812 203.792969 203.429688 C 203.824219 203.386719 203.996094 203.164062 204.046875 203.101562 C 204.105469 203.015625 204.167969 202.933594 204.167969 202.929688 C 204.367188 202.65625 204.554688 202.378906 204.742188 202.09375 C 205.132812 201.492188 205.496094 200.871094 205.828125 200.234375 C 206.003906 199.894531 206.171875 199.550781 206.328125 199.203125 C 206.347656 199.160156 206.453125 198.914062 206.492188 198.820312 C 206.511719 198.769531 206.53125 198.722656 206.535156 198.707031 C 207.097656 197.246094 207.503906 195.730469 207.753906 194.1875 C 207.765625 194.105469 207.777344 194.023438 207.789062 193.9375 C 207.796875 193.890625 207.828125 193.640625 207.835938 193.566406 C 207.878906 193.136719 207.914062 192.707031 207.9375 192.277344 C 207.984375 191.445312 207.984375 190.617188 207.960938 189.785156 C 207.917969 188.199219 209.296875 187.019531 210.796875 186.953125 C 212.359375 186.882812 213.59375 188.308594 213.632812 189.785156 C 213.832031 197.019531 211.386719 203.898438 206.304688 209.105469 Z M 212.226562 182.777344 C 212.296875 184.304688 210.875 185.609375 209.390625 185.609375 C 207.800781 185.609375 206.625 184.3125 206.554688 182.777344 C 206.488281 181.246094 207.90625 179.941406 209.390625 179.941406 C 210.980469 179.941406 212.160156 181.242188 212.226562 182.777344 Z M 212.226562 182.777344 " fill-opacity="1" fill-rule="nonzero"/></g><path fill="#ecedea" d="M 213.632812 189.785156 C 213.832031 197.019531 211.386719 203.898438 206.304688 209.105469 C 205.199219 210.242188 203.414062 210.132812 202.292969 209.105469 C 201.15625 208.0625 201.257812 206.160156 202.292969 205.097656 C 202.816406 204.5625 203.320312 204.007812 203.792969 203.429688 C 203.824219 203.386719 203.996094 203.164062 204.046875 203.101562 C 204.105469 203.015625 204.167969 202.933594 204.167969 202.929688 C 204.367188 202.65625 204.554688 202.378906 204.742188 202.09375 C 205.132812 201.492188 205.496094 200.871094 205.828125 200.234375 C 206.003906 199.894531 206.171875 199.550781 206.328125 199.203125 C 206.347656 199.160156 206.453125 198.914062 206.492188 198.820312 C 206.511719 198.769531 206.53125 198.722656 206.535156 198.707031 C 207.097656 197.246094 207.503906 195.730469 207.753906 194.1875 C 207.765625 194.105469 207.777344 194.019531 207.789062 193.9375 C 207.796875 193.890625 207.828125 193.636719 207.835938 193.566406 C 207.878906 193.136719 207.914062 192.707031 207.9375 192.277344 C 207.984375 191.445312 207.984375 190.617188 207.960938 189.785156 C 207.917969 188.199219 209.296875 187.019531 210.796875 186.953125 C 212.359375 186.882812 213.59375 188.304688 213.632812 189.785156 Z M 209.390625 179.941406 C 207.90625 179.941406 206.488281 181.246094 206.554688 182.777344 C 206.625 184.3125 207.800781 185.609375 209.390625 185.609375 C 210.875 185.609375 212.296875 184.304688 212.226562 182.777344 C 212.160156 181.242188 210.980469 179.941406 209.390625 179.941406 Z M 209.390625 179.941406 " fill-opacity="1" fill-rule="nonzero"/><g fill="#000000" fill-opacity="1"><g transform="translate(87.600366, 271.369208)"><g><path d="M 2.46875 -26.46875 L 7.90625 -26.46875 C 11.382812 -26.46875 13.984375 -25.363281 15.703125 -23.15625 C 17.421875 -20.945312 18.28125 -17.601562 18.28125 -13.125 C 18.28125 -10.75 17.957031 -8.570312 17.3125 -6.59375 C 16.664062 -4.625 15.632812 -3.03125 14.21875 -1.8125 C 12.8125 -0.601562 11.015625 0 8.828125 0 L 2.46875 0 Z M 8.359375 -4.125 C 10.148438 -4.125 11.390625 -4.894531 12.078125 -6.4375 C 12.773438 -7.976562 13.125 -9.878906 13.125 -12.140625 L 13.125 -13.34375 C 13.125 -14.96875 13.023438 -16.40625 12.828125 -17.65625 C 12.628906 -18.914062 12.171875 -20.007812 11.453125 -20.9375 C 10.734375 -21.875 9.65625 -22.34375 8.21875 -22.34375 L 7.625 -22.34375 L 7.625 -4.125 Z M 8.359375 -4.125 "/></g></g></g><g fill="#000000" fill-opacity="1"><g transform="translate(107.140142, 271.369208)"><g><path d="M 5.40625 0.453125 C 4.550781 0.453125 3.78125 0.191406 3.09375 -0.328125 C 2.414062 -0.859375 1.890625 -1.578125 1.515625 -2.484375 C 1.140625 -3.390625 0.953125 -4.410156 0.953125 -5.546875 C 0.953125 -8.109375 1.828125 -9.910156 3.578125 -10.953125 C 5.335938 -12.003906 7.378906 -12.597656 9.703125 -12.734375 C 9.703125 -14.003906 9.617188 -14.945312 9.453125 -15.5625 C 9.296875 -16.175781 8.898438 -16.484375 8.265625 -16.484375 C 7.722656 -16.484375 7.304688 -16.269531 7.015625 -15.84375 C 6.734375 -15.425781 6.5625 -14.882812 6.5 -14.21875 L 1.65625 -15.078125 C 1.894531 -16.890625 2.632812 -18.179688 3.875 -18.953125 C 5.125 -19.734375 6.585938 -20.125 8.265625 -20.125 C 10.398438 -20.125 12.003906 -19.554688 13.078125 -18.421875 C 14.148438 -17.296875 14.6875 -15.828125 14.6875 -14.015625 L 14.6875 -3.734375 C 14.6875 -2.628906 14.863281 -1.457031 15.21875 -0.21875 L 10.375 0.21875 L 9.8125 -2.21875 C 9.382812 -1.46875 8.757812 -0.832031 7.9375 -0.3125 C 7.113281 0.195312 6.269531 0.453125 5.40625 0.453125 Z M 7.6875 -3.078125 C 8.09375 -3.078125 8.429688 -3.171875 8.703125 -3.359375 C 8.972656 -3.546875 9.304688 -3.847656 9.703125 -4.265625 L 9.703125 -9.78125 C 8.523438 -9.78125 7.582031 -9.460938 6.875 -8.828125 C 6.175781 -8.191406 5.828125 -7.203125 5.828125 -5.859375 C 5.828125 -4.960938 5.984375 -4.273438 6.296875 -3.796875 C 6.617188 -3.316406 7.082031 -3.078125 7.6875 -3.078125 Z M 7.6875 -3.078125 "/></g></g></g><g fill="#000000" fill-opacity="1"><g transform="translate(123.752501, 271.369208)"><g><path d="M 2.1875 -22.40625 L 2.1875 -27.53125 L 7.125 -27.890625 L 7.125 -22.625 Z M 2.15625 0.21875 L 2.15625 -19.453125 L 7.09375 -19.875 L 7.09375 -0.21875 Z M 2.15625 0.21875 "/></g></g></g><g fill="#000000" fill-opacity="1"><g transform="translate(133.028623, 271.369208)"><g><path d="M 2.1875 0.21875 L 2.1875 -25.84375 L 7.125 -26.46875 L 7.125 -0.21875 Z M 2.1875 0.21875 "/></g></g></g><g fill="#000000" fill-opacity="1"><g transform="translate(142.304744, 271.369208)"><g><path d="M 2.609375 6.28125 C 2.046875 6.28125 1.351562 6.210938 0.53125 6.078125 L 0.53125 1.9375 C 1.394531 1.988281 2.085938 2.015625 2.609375 2.015625 C 4.679688 2.015625 5.71875 1.050781 5.71875 -0.875 L 5.71875 -1.875 L 0.03125 -19.625 L 5.40625 -19.875 L 8.1875 -7.40625 L 10.84375 -19.765625 L 15.3125 -19.796875 L 10.234375 -0.359375 C 9.523438 2.179688 8.492188 3.921875 7.140625 4.859375 C 5.796875 5.804688 4.285156 6.28125 2.609375 6.28125 Z M 2.609375 6.28125 "/></g></g></g><g fill="#000000" fill-opacity="1"><g transform="translate(157.823723, 271.369208)"><g/></g></g><g fill="#000000" fill-opacity="1"><g transform="translate(166.429702, 271.369208)"><g><path d="M 9.671875 0.5 C 6.640625 0.5 4.503906 -0.875 3.265625 -3.625 C 2.023438 -6.382812 1.40625 -9.773438 1.40625 -13.796875 C 1.40625 -15.960938 1.6875 -18.046875 2.25 -20.046875 C 2.820312 -22.046875 3.738281 -23.695312 5 -25 C 6.257812 -26.3125 7.851562 -26.96875 9.78125 -26.96875 C 11.257812 -26.96875 12.554688 -26.507812 13.671875 -25.59375 C 14.796875 -24.675781 15.65625 -23.476562 16.25 -22 C 16.851562 -20.53125 17.15625 -19 17.15625 -17.40625 L 12.140625 -17.15625 C 12.140625 -18.21875 11.960938 -19.421875 11.609375 -20.765625 C 11.253906 -22.117188 10.550781 -22.796875 9.5 -22.796875 C 8.382812 -22.796875 7.613281 -21.910156 7.1875 -20.140625 C 6.769531 -18.378906 6.5625 -16.265625 6.5625 -13.796875 C 6.5625 -10.742188 6.796875 -8.289062 7.265625 -6.4375 C 7.742188 -4.59375 8.648438 -3.671875 9.984375 -3.671875 C 10.929688 -3.671875 11.601562 -4.226562 12 -5.34375 C 12.394531 -6.46875 12.65625 -7.828125 12.78125 -9.421875 L 17.1875 -9 C 17.1875 -7.300781 16.90625 -5.726562 16.34375 -4.28125 C 15.78125 -2.84375 14.929688 -1.6875 13.796875 -0.8125 C 12.671875 0.0625 11.296875 0.5 9.671875 0.5 Z M 9.671875 0.5 "/></g></g></g><g fill="#000000" fill-opacity="1"><g transform="translate(184.840826, 271.369208)"><g><path d="M 2.15625 -25.84375 L 7.09375 -26.46875 L 7.09375 -17.328125 C 9.113281 -19.191406 11.007812 -20.125 12.78125 -20.125 C 14.019531 -20.125 15.035156 -19.671875 15.828125 -18.765625 C 16.617188 -17.859375 17.015625 -16.640625 17.015625 -15.109375 L 17.015625 -0.21875 L 12.078125 0.21875 L 12.078125 -13.3125 C 12.078125 -14.175781 11.914062 -14.820312 11.59375 -15.25 C 11.28125 -15.675781 10.863281 -15.890625 10.34375 -15.890625 C 9.914062 -15.890625 9.46875 -15.78125 9 -15.5625 C 8.53125 -15.351562 7.894531 -15.015625 7.09375 -14.546875 L 7.09375 -0.21875 L 2.15625 0.21875 Z M 2.15625 -25.84375 "/></g></g></g><g fill="#000000" fill-opacity="1"><g transform="translate(203.851548, 271.369208)"><g><path d="M 8.46875 0.453125 C 6.113281 0.453125 4.3125 -0.476562 3.0625 -2.34375 C 1.820312 -4.21875 1.203125 -6.707031 1.203125 -9.8125 C 1.203125 -12.96875 1.835938 -15.472656 3.109375 -17.328125 C 4.378906 -19.191406 6.222656 -20.125 8.640625 -20.125 C 10.953125 -20.125 12.71875 -19.191406 13.9375 -17.328125 C 15.164062 -15.472656 15.78125 -12.96875 15.78125 -9.8125 C 15.78125 -9.625 15.742188 -9.488281 15.671875 -9.40625 C 15.597656 -9.320312 15.5625 -9.269531 15.5625 -9.25 L 6.140625 -9.25 C 6.140625 -7.71875 6.335938 -6.320312 6.734375 -5.0625 C 7.140625 -3.800781 7.753906 -3.171875 8.578125 -3.171875 C 9.492188 -3.171875 10.175781 -3.703125 10.625 -4.765625 C 11.070312 -5.828125 11.304688 -6.378906 11.328125 -6.421875 L 15.078125 -5.015625 C 14.578125 -3.316406 13.785156 -1.976562 12.703125 -1 C 11.617188 -0.03125 10.207031 0.453125 8.46875 0.453125 Z M 10.90625 -12.109375 C 10.90625 -13.515625 10.71875 -14.628906 10.34375 -15.453125 C 9.96875 -16.285156 9.378906 -16.703125 8.578125 -16.703125 C 8.179688 -16.703125 7.789062 -16.5 7.40625 -16.09375 C 7.03125 -15.695312 6.722656 -15.144531 6.484375 -14.4375 C 6.253906 -13.726562 6.140625 -12.953125 6.140625 -12.109375 Z M 10.90625 -12.109375 "/></g></g></g><g fill="#000000" fill-opacity="1"><g transform="translate(220.463908, 271.369208)"><g><path d="M 8.296875 0.453125 C 6.785156 0.453125 5.492188 -0.015625 4.421875 -0.953125 C 3.359375 -1.890625 2.554688 -3.132812 2.015625 -4.6875 C 1.472656 -6.25 1.203125 -7.929688 1.203125 -9.734375 C 1.203125 -11.523438 1.460938 -13.207031 1.984375 -14.78125 C 2.515625 -16.363281 3.320312 -17.648438 4.40625 -18.640625 C 5.488281 -19.628906 6.820312 -20.125 8.40625 -20.125 C 9.601562 -20.125 10.675781 -19.820312 11.625 -19.21875 C 12.582031 -18.613281 13.332031 -17.769531 13.875 -16.6875 C 14.414062 -15.613281 14.707031 -14.378906 14.75 -12.984375 L 10.0625 -12.78125 C 10.0625 -12.875 10.019531 -13.25 9.9375 -13.90625 C 9.851562 -14.5625 9.675781 -15.101562 9.40625 -15.53125 C 9.132812 -15.957031 8.785156 -16.171875 8.359375 -16.171875 C 7.421875 -16.171875 6.820312 -15.523438 6.5625 -14.234375 C 6.300781 -12.953125 6.171875 -11.515625 6.171875 -9.921875 C 6.171875 -8.335938 6.304688 -6.90625 6.578125 -5.625 C 6.847656 -4.34375 7.488281 -3.703125 8.5 -3.703125 C 9.769531 -3.703125 10.429688 -4.953125 10.484375 -7.453125 L 14.640625 -6.984375 C 14.335938 -4.535156 13.726562 -2.679688 12.8125 -1.421875 C 11.894531 -0.171875 10.390625 0.453125 8.296875 0.453125 Z M 8.296875 0.453125 "/></g></g></g><g fill="#000000" fill-opacity="1"><g transform="translate(236.159218, 271.369208)"><g><path d="M 12.734375 0.453125 L 8.71875 -9.421875 L 7.09375 -7.265625 L 7.09375 0 L 2.15625 0 L 2.15625 -25.84375 L 7.09375 -26.46875 L 7.09375 -13.34375 L 12.140625 -19.875 L 17.5 -19.875 L 11.9375 -12.703125 L 17.125 -1.03125 Z M 12.734375 0.453125 "/></g></g></g><g fill="#000000" fill-opacity="1"><g transform="translate(253.794413, 271.369208)"><g><path d="M 2.1875 -22.40625 L 2.1875 -27.53125 L 7.125 -27.890625 L 7.125 -22.625 Z M 2.15625 0.21875 L 2.15625 -19.453125 L 7.09375 -19.875 L 7.09375 -0.21875 Z M 2.15625 0.21875 "/></g></g></g><g fill="#000000" fill-opacity="1"><g transform="translate(263.070534, 271.369208)"><g><path d="M 2.15625 -19.453125 L 7.09375 -19.875 L 7.09375 -17.328125 C 8.101562 -18.222656 9.097656 -18.910156 10.078125 -19.390625 C 11.054688 -19.878906 11.957031 -20.125 12.78125 -20.125 C 14.019531 -20.125 15.035156 -19.671875 15.828125 -18.765625 C 16.617188 -17.859375 17.015625 -16.640625 17.015625 -15.109375 L 17.015625 -0.21875 L 12.078125 0.21875 L 12.078125 -13.234375 C 12.078125 -15.003906 11.472656 -15.890625 10.265625 -15.890625 C 9.867188 -15.890625 9.425781 -15.769531 8.9375 -15.53125 C 8.457031 -15.289062 7.84375 -14.945312 7.09375 -14.5 L 7.09375 -0.21875 L 2.15625 0.21875 Z M 2.15625 -19.453125 "/></g></g></g></svg>