<svg xmlns="http://www.w3.org/2000/svg" xmlns:xlink="http://www.w3.org/1999/xlink" width="500" zoomAndPan="magnify" viewBox="0 0 375 374.999991" height="500" preserveAspectRatio="xMidYMid meet" version="1.0"><defs><clipPath id="ae5dc8305b"><path d="M 14 8 L 363 8 L 363 360.75 L 14 360.75 Z M 14 8 " clip-rule="nonzero"/></clipPath><clipPath id="a16970e5b5"><path d="M 68 89.265625 L 352.214844 89.265625 L 352.214844 281.265625 L 68 281.265625 Z M 68 89.265625 " clip-rule="nonzero"/></clipPath></defs><rect x="-37.5" width="450" fill="#ffffff" y="-37.499999" height="449.999989" fill-opacity="1"/><rect x="-37.5" width="450" fill="#2ecc71" y="-37.499999" height="449.999989" fill-opacity="1"/><path fill="#b6b6b7" d="M 299.792969 36.6875 C 299.933594 35.972656 300.070312 35.261719 300.101562 34.582031 C 300.742188 27.808594 298.535156 21.625 292.878906 17.601562 C 280.433594 8.628906 260.378906 22.085938 257.996094 35.652344 C 256.886719 41.796875 258.738281 52.257812 262.316406 57.40625 C 265.621094 63.191406 277.074219 65.203125 273.695312 55.453125 C 271.078125 48.835938 265.953125 42.21875 268.265625 34.722656 C 269.625 28.617188 276.714844 23.433594 282.613281 27.191406 C 285.796875 28.910156 287.910156 32.335938 287.925781 35.960938 C 287.910156 36.273438 287.898438 36.601562 287.882812 36.929688 C 291.851562 36.832031 295.824219 36.75 299.792969 36.6875 Z M 299.792969 36.6875 " fill-opacity="1" fill-rule="nonzero"/><path fill="#b6b6b7" d="M 207.804688 40.570312 C 210.617188 40.410156 213.429688 40.25 216.242188 40.09375 C 216.53125 35.039062 214.695312 29.886719 211.523438 25.976562 C 208.066406 22.132812 202.332031 21.335938 197.464844 22.28125 C 185.726562 24.636719 176.535156 36.390625 176.164062 48.21875 C 176.070312 54.199219 178.191406 60.316406 182.886719 64.203125 C 185.015625 65.996094 187.78125 67.855469 190.6875 67.195312 C 190.625 67.21875 190.5625 67.238281 190.5 67.261719 C 190.492188 67.265625 190.480469 67.265625 190.296875 67.332031 C 194.019531 66.359375 191.507812 60.5625 190.917969 58.027344 C 189.691406 54.441406 187.101562 51.550781 185.671875 48.066406 C 182.644531 40.273438 187.039062 31.492188 195.34375 29.789062 C 202.40625 28.621094 207.1875 34.175781 207.804688 40.570312 Z M 207.804688 40.570312 " fill-opacity="1" fill-rule="nonzero"/><g clip-path="url(#ae5dc8305b)"><path fill="#332c2b" d="M 126.59375 44.429688 C 141.160156 43.988281 155.730469 43.546875 170.277344 42.679688 L 170.390625 42.671875 C 172.519531 32.136719 180.042969 22.722656 189.695312 18.074219 C 202.9375 12.128906 217.152344 16.460938 221.417969 31.113281 C 222.316406 33.882812 222.757812 36.820312 222.671875 39.730469 C 232.21875 39.210938 241.765625 38.710938 251.3125 38.265625 C 251.5 34.527344 252.351562 30.847656 254.078125 27.414062 C 262.320312 11.019531 287.253906 0.0351562 300.917969 16.378906 C 302.929688 18.621094 304.542969 21.3125 305.425781 24.199219 C 306.113281 26.203125 306.976562 32.101562 306.417969 36.601562 L 307.503906 36.589844 C 315.472656 36.65625 322.882812 37.394531 330.675781 37.984375 C 338.132812 37.636719 341.609375 40.839844 343.132812 45.523438 C 350.183594 48.96875 358.222656 57.695312 360.144531 62.246094 C 363.394531 71.8125 361.460938 82.273438 361.46875 92.183594 C 361.074219 105.925781 361.304688 119.679688 361.363281 133.425781 C 360.851562 182.132812 359.492188 230.847656 357.4375 279.511719 C 356.773438 289.75 355.921875 299.980469 355.242188 310.214844 C 354.421875 320.269531 354.308594 330.832031 348.667969 339.613281 C 337.570312 357.980469 313.417969 355.523438 294.824219 357.558594 C 269.355469 359.667969 243.753906 360.792969 218.183594 360.792969 C 215.585938 360.792969 212.984375 360.78125 210.386719 360.757812 C 168.621094 360.144531 126.808594 360.15625 85.152344 356.722656 C 71.253906 355.867188 56.921875 355.363281 45.875 345.703125 C 34.226562 334.828125 29.945312 331.167969 37.46875 315.289062 C 39.152344 311.40625 41.242188 307.675781 43.953125 304.453125 C 42.390625 304.332031 40.828125 304.210938 39.269531 304.09375 C 34.195312 303.5625 29.144531 302.785156 24.167969 301.648438 C 14.417969 300.132812 11.644531 295.414062 16.339844 286.320312 C 21.507812 275.945312 29.082031 266.90625 33.523438 256.148438 C 40.019531 239.734375 43.0625 221.972656 44.777344 204.460938 C 46.273438 169.636719 43.671875 134.734375 42.746094 100 C 42.78125 89.351562 41.425781 78.757812 41.535156 68.113281 C 41.675781 54.117188 42.015625 45.949219 58.824219 47.960938 C 62.085938 47.644531 65.355469 47.355469 68.621094 47.097656 C 68.773438 41.296875 70.378906 35.496094 73.335938 30.511719 C 82.996094 13.226562 108.753906 8.609375 121.339844 25.257812 C 125.417969 30.699219 127.339844 37.679688 126.59375 44.429688 Z M 93.824219 45.574219 C 97.582031 45.40625 101.347656 45.25 105.109375 45.113281 C 105.050781 44.226562 104.878906 43.355469 104.542969 42.503906 C 102.617188 37.386719 97.261719 36.320312 94.613281 41.53125 C 94.035156 42.90625 93.808594 44.246094 93.824219 45.574219 Z M 191.261719 41.515625 C 194.628906 41.324219 198 41.128906 201.367188 40.9375 C 200.730469 36.769531 197.910156 34.097656 193.359375 37.738281 C 192.15625 38.683594 191.5 40.050781 191.261719 41.515625 Z M 281.40625 37.109375 C 281.441406 36.972656 281.480469 36.835938 281.527344 36.699219 C 281.746094 34.875 280.703125 33.253906 279.042969 32.535156 C 277.875 31.875 276.671875 32.828125 275.875 33.652344 C 274.945312 34.714844 274.433594 35.992188 274.238281 37.335938 C 276.625 37.253906 279.015625 37.179688 281.40625 37.109375 Z M 281.40625 37.109375 " fill-opacity="1" fill-rule="nonzero"/></g><path fill="#b6b6b7" d="M 111.550781 44.894531 C 114.40625 44.800781 117.265625 44.710938 120.125 44.625 C 122.425781 29.425781 107.820312 17.039062 92.890625 22.503906 C 79.074219 26.429688 71.867188 43.007812 76.257812 56.234375 C 77.851562 60.707031 80.703125 65.121094 84.875 67.542969 C 88.097656 69.339844 92.988281 68.664062 93.136719 64.246094 C 93.121094 62.0625 92 60.085938 91.160156 58.121094 C 88.085938 51.726562 85.308594 43.679688 89.726562 37.238281 C 93.445312 31.242188 101.910156 29.570312 106.96875 34.882812 C 108.785156 36.625 110.113281 38.796875 110.84375 41.199219 C 111.128906 42.191406 111.433594 43.535156 111.550781 44.894531 Z M 111.550781 44.894531 " fill-opacity="1" fill-rule="nonzero"/><path fill="#e62129" d="M 49.296875 102.734375 C 52.882812 101.636719 56.480469 100.308594 60.3125 100.496094 C 70.683594 100.328125 81.089844 100.414062 91.417969 99.308594 C 107.589844 97.472656 123.886719 97.085938 140.121094 96.03125 C 165.648438 94.816406 191.21875 95.566406 216.753906 94.550781 C 242.210938 93.289062 267.714844 93.058594 293.199219 92.660156 C 305.636719 92.984375 318.070312 93.082031 330.503906 92.9375 C 332.824219 93.015625 335.117188 93.421875 337.367188 93.996094 C 337.273438 91.871094 337.171875 89.746094 337.066406 87.621094 C 336.84375 77.980469 336.941406 68.339844 337.5625 58.714844 C 337.539062 54.257812 338.945312 48.574219 335.613281 45.097656 C 316.085938 42.210938 296.296875 42.804688 276.636719 43.757812 L 275.320312 43.796875 C 277.28125 48.429688 280.421875 52.71875 280.613281 57.898438 C 281.308594 64.226562 276.386719 68.6875 270.566406 68.6875 C 269.777344 68.6875 268.972656 68.605469 268.160156 68.4375 C 258.449219 66.933594 253.464844 56.855469 252.179688 47.996094 C 251.945312 46.90625 251.75 45.808594 251.601562 44.710938 C 231.957031 45.578125 212.328125 46.691406 192.691406 47.804688 C 193.855469 49.824219 195.230469 51.734375 196.140625 53.894531 C 197.898438 58.386719 199.695312 63.667969 197.933594 68.410156 C 196.648438 71.703125 193.246094 73.75 189.773438 73.75 C 189.605469 73.75 189.4375 73.746094 189.269531 73.738281 C 183.589844 73.582031 178.871094 69.753906 175.363281 65.597656 C 171.59375 60.984375 169.929688 54.972656 169.785156 49.085938 C 168.066406 49.175781 166.347656 49.269531 164.628906 49.363281 C 141.570312 50.644531 118.464844 50.890625 95.398438 51.898438 C 97.132812 56.027344 99.664062 60.113281 99.523438 64.492188 C 99.40625 70.613281 94.230469 74.933594 88.527344 74.933594 C 87.519531 74.933594 86.5 74.796875 85.484375 74.515625 C 82.207031 73.714844 79.296875 71.933594 77.019531 69.445312 C 72.648438 65.054688 70.035156 59.425781 69.058594 53.480469 C 66.84375 53.65625 64.632812 53.84375 62.417969 54.050781 C 46.578125 55.675781 48.746094 50.296875 47.921875 69.117188 C 48.148438 80.332031 48.960938 91.519531 49.296875 102.734375 Z M 49.296875 102.734375 " fill-opacity="1" fill-rule="nonzero"/><path fill="#fefefe" d="M 53.492188 106.414062 C 52.660156 106.246094 50.90625 105.839844 49.363281 105.289062 C 49.40625 107.058594 49.429688 108.832031 49.4375 110.605469 C 50.398438 134.714844 51.632812 158.546875 51.582031 182.640625 C 52.152344 207.179688 48.890625 231.933594 40.804688 255.164062 C 37.503906 264.320312 32.121094 272.460938 26.925781 280.617188 C 24.597656 284.917969 21.164062 289.046875 20.53125 293.980469 C 38.5 299.394531 57.640625 298.648438 76.15625 300.675781 C 112.53125 304.628906 149.011719 307.847656 185.570312 309.140625 C 213.375 309.550781 241.125 312.488281 268.933594 311.738281 C 278.59375 311.03125 288.53125 311.042969 297.914062 308.449219 C 302.117188 305.410156 305.289062 301.183594 308.644531 297.28125 C 325.234375 277.113281 332.859375 251.390625 335 225.691406 C 336.445312 207.761719 338.46875 189.863281 338.601562 171.855469 C 338.996094 147.15625 338.582031 122.472656 337.535156 97.796875 C 335.285156 98.582031 332.917969 99.054688 330.574219 99.257812 C 317.976562 99.621094 305.363281 99.292969 292.761719 99.050781 C 271.929688 99.265625 251.085938 99.808594 230.253906 100.292969 C 200.597656 102.101562 170.875 101.128906 141.203125 102.375 C 128.574219 103.054688 115.953125 103.792969 103.335938 104.542969 C 93.570312 105.480469 83.828125 106.683594 74.003906 106.660156 C 71.828125 106.648438 69.648438 106.722656 67.460938 106.800781 C 65.433594 106.875 63.398438 106.945312 61.371094 106.945312 C 58.730469 106.945312 56.097656 106.824219 53.492188 106.414062 Z M 53.492188 106.414062 " fill-opacity="1" fill-rule="nonzero"/><path fill="#e62129" d="M 354.96875 101.5625 C 355.070312 92.625 355.261719 83.691406 355.566406 74.757812 C 355.609375 65.832031 354.113281 62.199219 347.011719 56.246094 C 346.039062 55.429688 345.101562 54.582031 344.199219 53.699219 C 344.222656 58.070312 343.699219 62.675781 343.566406 66.558594 C 343.171875 75.738281 343.332031 84.925781 343.695312 94.101562 C 344.402344 94.289062 345.074219 94.539062 345.671875 94.832031 C 349.160156 96.804688 352.132812 99.054688 354.96875 101.5625 Z M 354.96875 101.5625 " fill-opacity="1" fill-rule="nonzero"/><path fill="#fefefe" d="M 41.527344 331.914062 C 43.175781 334.171875 45.257812 336.160156 47.101562 338.226562 C 53.667969 344.734375 62.382812 348.683594 71.617188 349.195312 C 85.488281 350.527344 99.414062 351.308594 113.320312 352.15625 C 134.121094 353.445312 154.96875 353.460938 175.796875 353.863281 C 206.488281 354.601562 237.203125 354.75 267.863281 352.980469 C 281.925781 352.429688 295.933594 351.082031 309.949219 349.929688 C 320.515625 349.054688 332.3125 348.417969 340.15625 340.34375 C 349.222656 330.582031 348.03125 316.449219 349.265625 304.09375 C 350.929688 283.390625 352.078125 262.65625 352.464844 241.886719 C 353.410156 207.191406 354.714844 172.511719 354.964844 137.804688 C 354.871094 127.992188 354.839844 118.175781 354.90625 108.363281 C 354.746094 108.316406 354.589844 108.269531 354.433594 108.21875 C 350.410156 106.828125 347.59375 103.382812 344.003906 101.214844 C 344.113281 103.511719 344.226562 105.808594 344.34375 108.101562 C 345.363281 139.203125 345.902344 170.4375 343.507812 201.480469 C 343.800781 202.867188 343.964844 204.277344 343.996094 205.6875 C 343.867188 220.664062 342.144531 235.578125 341.890625 250.554688 C 341.367188 266.390625 340.207031 282.316406 336.855469 297.808594 C 335.394531 304.183594 333.625 310.46875 331.789062 316.734375 C 330.796875 320.761719 329.109375 324.726562 325.890625 327.472656 C 310.804688 339.164062 282.132812 337.820312 263.546875 338.039062 C 246.941406 337.710938 230.335938 337.324219 213.726562 337.816406 C 197.246094 338.121094 180.773438 337.847656 164.296875 337.578125 C 147.234375 337.296875 130.171875 337.011719 113.109375 337.375 C 89.929688 337.617188 66.511719 337.285156 43.734375 332.652344 C 42.988281 332.4375 42.253906 332.1875 41.527344 331.914062 Z M 41.527344 331.914062 " fill-opacity="1" fill-rule="nonzero"/><path fill="#fefefe" d="M 244.492188 318.039062 C 209.410156 316.007812 174.242188 315.648438 139.195312 312.996094 C 108.90625 310.632812 78.546875 307.269531 48.300781 304.804688 C 47.945312 306.769531 47.367188 308.859375 46.882812 310.28125 C 44.808594 315.871094 40.757812 321.277344 40.226562 327.300781 C 40.589844 327.25 40.953125 327.195312 41.320312 327.15625 C 49.089844 326.414062 56.765625 328.695312 64.488281 329.308594 C 70.953125 329.984375 77.441406 330.46875 83.941406 330.742188 C 95.40625 331.167969 106.882812 331.03125 118.359375 330.898438 C 126.765625 330.800781 135.175781 330.699219 143.582031 330.824219 C 173.753906 331.601562 203.9375 331.679688 234.109375 331.144531 C 257.144531 331.179688 280.488281 333.121094 303.34375 329.515625 C 310.25 328.054688 318.109375 326.710938 323.03125 321.214844 C 325.351562 317.9375 325.804688 313.785156 327.074219 310.046875 C 332.148438 293.742188 334.109375 276.84375 335.085938 259.871094 C 329.210938 279.585938 319.292969 297.695312 303.148438 312.507812 C 298.714844 316.238281 292.328125 316.027344 286.855469 316.835938 C 277.304688 317.875 267.707031 318.300781 258.105469 318.300781 C 253.566406 318.300781 249.03125 318.203125 244.492188 318.039062 Z M 244.492188 318.039062 " fill-opacity="1" fill-rule="nonzero"/><path fill="#bcbcbc" d="M 92.890625 22.507812 C 107.820312 17.042969 122.429688 29.429688 120.125 44.628906 C 117.269531 44.714844 114.40625 44.800781 111.546875 44.894531 C 111.429688 43.539062 111.128906 42.195312 110.84375 41.203125 C 110.113281 38.800781 108.785156 36.628906 106.96875 34.886719 C 101.910156 29.574219 93.445312 31.246094 89.726562 37.238281 C 85.308594 43.679688 88.085938 51.730469 91.160156 58.125 C 92 60.085938 93.125 62.066406 93.136719 64.25 C 92.984375 68.667969 88.097656 69.34375 84.875 67.546875 C 80.703125 65.125 77.851562 60.710938 76.257812 56.238281 C 71.867188 43.011719 79.074219 26.433594 92.890625 22.507812 Z M 92.890625 22.507812 " fill-opacity="1" fill-rule="nonzero"/><path fill="#bcbcbc" d="M 211.519531 25.976562 C 214.695312 29.890625 216.53125 35.039062 216.238281 40.09375 C 213.429688 40.25 210.617188 40.410156 207.800781 40.566406 C 207.1875 34.175781 202.40625 28.625 195.34375 29.792969 C 187.039062 31.496094 182.644531 40.277344 185.671875 48.070312 C 187.101562 51.554688 189.691406 54.441406 190.917969 58.03125 C 191.507812 60.5625 194.019531 66.359375 190.292969 67.332031 C 190.480469 67.265625 190.488281 67.265625 190.5 67.261719 C 190.5625 67.238281 190.625 67.21875 190.6875 67.195312 C 187.78125 67.855469 185.015625 65.996094 182.882812 64.207031 C 178.191406 60.316406 176.070312 54.199219 176.164062 48.21875 C 176.535156 36.390625 185.726562 24.640625 197.464844 22.285156 C 202.332031 21.335938 208.066406 22.132812 211.523438 25.976562 Z M 211.519531 25.976562 " fill-opacity="1" fill-rule="nonzero"/><path fill="#bcbcbc" d="M 292.882812 17.605469 C 298.539062 21.632812 300.746094 27.8125 300.105469 34.585938 C 300.074219 35.265625 299.9375 35.976562 299.796875 36.6875 C 295.828125 36.75 291.855469 36.832031 287.886719 36.933594 C 287.898438 36.605469 287.914062 36.273438 287.929688 35.964844 C 287.914062 32.335938 285.800781 28.914062 282.617188 27.195312 C 276.71875 23.433594 269.628906 28.617188 268.269531 34.726562 C 265.957031 42.21875 271.082031 48.839844 273.699219 55.453125 C 277.078125 65.203125 265.625 63.195312 262.320312 57.40625 C 258.742188 52.257812 256.890625 41.796875 258 35.652344 C 260.382812 22.089844 280.4375 8.632812 292.882812 17.605469 Z M 292.882812 17.605469 " fill-opacity="1" fill-rule="nonzero"/><path fill="#000000" d="M 320.957031 121.460938 C 315.109375 120.125 310.808594 114.753906 310.65625 108.804688 C 317.097656 108.636719 321.539062 115.480469 320.957031 121.460938 Z M 320.957031 121.460938 " fill-opacity="1" fill-rule="nonzero"/><path fill="#000000" d="M 313.382812 131.902344 C 310.683594 131.027344 308.167969 127.5 309.488281 124.8125 C 313.460938 124.140625 317.273438 128.449219 316.277344 132.3125 C 315.304688 132.476562 314.304688 132.238281 313.382812 131.902344 Z M 313.382812 131.902344 " fill-opacity="1" fill-rule="nonzero"/><path fill="#000000" d="M 292.980469 295.011719 C 286.589844 293.617188 279.617188 287.503906 280.773438 280.433594 C 287.15625 282.042969 293.078125 288.207031 292.980469 295.011719 Z M 292.980469 295.011719 " fill-opacity="1" fill-rule="nonzero"/><path fill="#000000" d="M 299.585938 289.488281 C 297.332031 287.863281 296.316406 284.425781 297.796875 281.996094 C 301.804688 281.808594 303.921875 287.476562 301.6875 290.46875 C 300.910156 290.355469 300.203125 289.96875 299.585938 289.488281 Z M 299.585938 289.488281 " fill-opacity="1" fill-rule="nonzero"/><path fill="#000000" d="M 39.25 281.957031 C 41.066406 275.820312 47.71875 269.1875 54.132812 268.039062 C 54.523438 274.613281 46.035156 283.875 39.25 281.957031 Z M 39.25 281.957031 " fill-opacity="1" fill-rule="nonzero"/><path fill="#000000" d="M 51.539062 286.6875 C 50.839844 286.550781 51.054688 285.5625 51.152344 285.074219 C 51.652344 282.578125 54.445312 280.574219 56.949219 281.25 C 57.832031 284.242188 54.601562 287.675781 51.539062 286.6875 Z M 51.539062 286.6875 " fill-opacity="1" fill-rule="nonzero"/><path fill="#000000" d="M 61.296875 138.851562 C 61.105469 132.15625 66.722656 126.769531 72.6875 124.695312 C 73.710938 131.261719 67.859375 138.332031 61.296875 138.851562 Z M 61.296875 138.851562 " fill-opacity="1" fill-rule="nonzero"/><path fill="#000000" d="M 71.257812 141.378906 C 71.179688 141.367188 70.535156 141.253906 70.5625 141.113281 C 70.5625 141.117188 70.5625 141.117188 70.5625 141.117188 C 69.734375 137.789062 73.039062 134.4375 76.339844 134.714844 C 76.523438 134.75 76.488281 134.761719 76.558594 134.960938 C 77.445312 138.117188 74.589844 141.769531 71.257812 141.375 Z M 71.257812 141.378906 " fill-opacity="1" fill-rule="nonzero"/><path fill="#000000" d="M 154.019531 293.417969 C 156.261719 287.570312 162.628906 283.261719 168.945312 283.695312 C 167.453125 289.949219 160.554688 295.570312 154.015625 293.414062 Z M 154.019531 293.417969 " fill-opacity="1" fill-rule="nonzero"/><path fill="#000000" d="M 180.265625 298.996094 C 178.023438 298.976562 179.453125 296.179688 180.671875 295.609375 C 181.636719 295.097656 183.109375 294.789062 184.027344 295.5 C 184.320312 297.457031 182.164062 299.246094 180.265625 298.996094 Z M 180.265625 298.996094 " fill-opacity="1" fill-rule="nonzero"/><path fill="#000000" d="M 293.296875 27.03125 C 291.246094 26.03125 289.160156 25.117188 287.925781 23.171875 C 287.328125 22.316406 286.933594 21.363281 286.488281 20.433594 C 287.734375 18.636719 290.65625 19.214844 292.304688 20.15625 C 293.769531 21.023438 294.773438 22.609375 295.058594 24.277344 C 295.242188 25.371094 295.027344 26.59375 294.304688 27.457031 C 293.933594 27.34375 293.609375 27.183594 293.296875 27.03125 Z M 293.296875 27.03125 " fill-opacity="1" fill-rule="nonzero"/><path fill="#000000" d="M 205.183594 29.492188 C 203.636719 28.859375 202.136719 27.445312 201.425781 26.011719 C 201.207031 25.574219 200.953125 25.101562 200.894531 24.613281 C 202.21875 23.105469 204.691406 23.382812 206.3125 24.226562 C 208.351562 25.34375 209.710938 28.210938 208.699219 30.414062 C 207.503906 30.433594 206.261719 29.972656 205.1875 29.492188 Z M 205.183594 29.492188 " fill-opacity="1" fill-rule="nonzero"/><path fill="#000000" d="M 108.421875 30.523438 C 106.742188 30.046875 105.082031 29.234375 104.074219 27.757812 C 103.132812 26.242188 102.179688 25.476562 104.417969 24.667969 C 107.03125 23.785156 110.117188 25.511719 110.828125 28.152344 C 111.4375 30.828125 110.945312 31.355469 108.3125 30.488281 Z M 108.421875 30.523438 " fill-opacity="1" fill-rule="nonzero"/><path fill="#000000" d="M 276.828125 87.261719 C 274.421875 87.148438 272.015625 87.328125 269.617188 87.203125 C 267.316406 87.023438 265.136719 86.164062 263.257812 84.851562 C 263.535156 84.261719 264.195312 83.800781 264.6875 83.390625 C 266.769531 81.671875 269.476562 80.761719 272.171875 80.84375 C 277.96875 81.117188 284.476562 79.6875 289.480469 83.347656 C 286.21875 86.8125 281.367188 87.527344 276.828125 87.261719 Z M 276.828125 87.261719 " fill-opacity="1" fill-rule="nonzero"/><path fill="#000000" d="M 286.011719 76.410156 C 284.367188 75.21875 287.066406 73.785156 288.269531 74.09375 C 289.074219 74.234375 290.132812 74.664062 290.390625 75.5 C 289.71875 77.101562 287.292969 77.5 286.011719 76.410156 Z M 286.011719 76.410156 " fill-opacity="1" fill-rule="nonzero"/><path fill="#000000" d="M 111 58.496094 C 110.742188 58.363281 110.542969 58.1875 110.292969 58.085938 C 112.304688 54.921875 116.289062 53.585938 119.925781 53.699219 C 124.046875 53.578125 128.175781 53.574219 132.300781 53.492188 C 135.734375 53.300781 139.320312 54.234375 141.957031 56.507812 C 140.09375 58.105469 137.722656 59.175781 135.320312 59.664062 C 129.851562 60.25 124.292969 59.777344 118.792969 60.144531 C 116.125 60.273438 113.34375 59.816406 111 58.496094 Z M 111 58.496094 " fill-opacity="1" fill-rule="nonzero"/><path fill="#000000" d="M 126.660156 68.714844 C 125.328125 68.648438 121.910156 67.15625 123.742188 65.625 C 125.804688 63.496094 129.761719 63.953125 131.332031 66.421875 C 130.523438 68.046875 128.414062 68.8125 126.660156 68.714844 Z M 126.660156 68.714844 " fill-opacity="1" fill-rule="nonzero"/><path fill="#000000" d="M 63.703125 92.46875 C 61.242188 92.335938 58.804688 91.421875 56.839844 89.96875 C 59.488281 86.523438 64.019531 85.953125 68.074219 85.800781 C 72.558594 85.214844 77.523438 85.320312 81.007812 88.59375 C 76.214844 92.601562 69.5625 92.023438 63.703125 92.46875 Z M 63.703125 92.46875 " fill-opacity="1" fill-rule="nonzero"/><g clip-path="url(#a16970e5b5)"><path fill="#00d300" d="M 139.476562 281.222656 L 68.121094 211.828125 L 108.503906 174 L 137.476562 213.285156 C 137.476562 213.285156 230.636719 115.570312 352.035156 89.265625 C 213.589844 158.46875 139.476562 281.222656 139.476562 281.222656 Z M 139.476562 281.222656 " fill-opacity="1" fill-rule="nonzero"/></g></svg>