<svg xmlns="http://www.w3.org/2000/svg" xmlns:xlink="http://www.w3.org/1999/xlink" width="500" zoomAndPan="magnify" viewBox="0 0 375 374.999991" height="500" preserveAspectRatio="xMidYMid meet" version="1.0"><defs><clipPath id="c45d7cb8a3"><path d="M 40.125 37.5 L 136 37.5 L 136 133 L 40.125 133 Z M 40.125 37.5 " clip-rule="nonzero"/></clipPath><clipPath id="f6ee5c95e7"><path d="M 40.125 242 L 136 242 L 136 337.5 L 40.125 337.5 Z M 40.125 242 " clip-rule="nonzero"/></clipPath><clipPath id="598e0052ea"><path d="M 239 37.5 L 334.875 37.5 L 334.875 133 L 239 133 Z M 239 37.5 " clip-rule="nonzero"/></clipPath><clipPath id="233014c669"><path d="M 239 242 L 334.875 242 L 334.875 337.5 L 239 337.5 Z M 239 242 " clip-rule="nonzero"/></clipPath><clipPath id="b0f7221678"><path d="M 40.125 143 L 109 143 L 109 223 L 40.125 223 Z M 40.125 143 " clip-rule="nonzero"/></clipPath></defs><rect x="-37.5" width="450" fill="#ffffff" y="-37.499999" height="449.999989" fill-opacity="1"/><rect x="-37.5" width="450" fill="#2ecc71" y="-37.499999" height="449.999989" fill-opacity="1"/><g clip-path="url(#c45d7cb8a3)"><path fill="#efede8" d="M 45.28125 132.707031 L 130.148438 132.707031 C 132.972656 132.707031 135.265625 130.414062 135.265625 127.589844 L 135.265625 42.722656 C 135.265625 39.898438 132.972656 37.605469 130.148438 37.605469 L 45.28125 37.605469 C 42.457031 37.605469 40.164062 39.898438 40.164062 42.722656 L 40.164062 127.589844 C 40.164062 130.414062 42.457031 132.707031 45.28125 132.707031 Z M 50.398438 47.839844 L 125.03125 47.839844 L 125.03125 122.472656 L 50.398438 122.472656 Z M 50.398438 47.839844 " fill-opacity="1" fill-rule="nonzero"/></g><path fill="#efede8" d="M 60.425781 57.972656 L 115.003906 57.972656 L 115.003906 112.34375 L 60.425781 112.34375 Z M 60.425781 57.972656 " fill-opacity="1" fill-rule="nonzero"/><g clip-path="url(#f6ee5c95e7)"><path fill="#efede8" d="M 130.148438 242.292969 L 45.28125 242.292969 C 42.457031 242.292969 40.164062 244.585938 40.164062 247.410156 L 40.164062 332.277344 C 40.164062 335.101562 42.457031 337.394531 45.28125 337.394531 L 130.148438 337.394531 C 132.972656 337.394531 135.265625 335.101562 135.265625 332.277344 L 135.265625 247.410156 C 135.265625 244.585938 132.972656 242.292969 130.148438 242.292969 Z M 125.03125 327.160156 L 50.398438 327.160156 L 50.398438 252.527344 L 125.03125 252.527344 Z M 125.03125 327.160156 " fill-opacity="1" fill-rule="nonzero"/></g><path fill="#efede8" d="M 60.425781 262.660156 L 115.003906 262.660156 L 115.003906 317.03125 L 60.425781 317.03125 Z M 60.425781 262.660156 " fill-opacity="1" fill-rule="nonzero"/><g clip-path="url(#598e0052ea)"><path fill="#efede8" d="M 329.71875 37.605469 L 244.851562 37.605469 C 242.027344 37.605469 239.734375 39.898438 239.734375 42.722656 L 239.734375 127.589844 C 239.734375 130.414062 242.027344 132.707031 244.851562 132.707031 L 329.71875 132.707031 C 332.542969 132.707031 334.835938 130.414062 334.835938 127.589844 L 334.835938 42.722656 C 334.835938 39.898438 332.542969 37.605469 329.71875 37.605469 Z M 324.601562 122.472656 L 249.96875 122.472656 L 249.96875 47.839844 L 324.601562 47.839844 Z M 324.601562 122.472656 " fill-opacity="1" fill-rule="nonzero"/></g><path fill="#efede8" d="M 259.996094 57.972656 L 314.574219 57.972656 L 314.574219 112.34375 L 259.996094 112.34375 Z M 259.996094 57.972656 " fill-opacity="1" fill-rule="nonzero"/><g clip-path="url(#233014c669)"><path fill="#efede8" d="M 329.71875 242.292969 L 244.851562 242.292969 C 242.027344 242.292969 239.734375 244.585938 239.734375 247.410156 L 239.734375 332.277344 C 239.734375 335.101562 242.027344 337.394531 244.851562 337.394531 L 329.71875 337.394531 C 332.542969 337.394531 334.835938 335.101562 334.835938 332.277344 L 334.835938 247.410156 C 334.835938 244.585938 332.542969 242.292969 329.71875 242.292969 Z M 324.601562 327.160156 L 249.96875 327.160156 L 249.96875 252.527344 L 324.601562 252.527344 Z M 324.601562 327.160156 " fill-opacity="1" fill-rule="nonzero"/></g><path fill="#efede8" d="M 259.996094 262.660156 L 314.574219 262.660156 L 314.574219 317.03125 L 259.996094 317.03125 Z M 259.996094 262.660156 " fill-opacity="1" fill-rule="nonzero"/><path fill="#efede8" d="M 169.148438 103.492188 L 186.957031 103.492188 L 186.957031 46.335938 L 147.402344 46.335938 L 147.402344 70.644531 L 169.148438 70.644531 Z M 169.148438 103.492188 " fill-opacity="1" fill-rule="nonzero"/><path fill="#efede8" d="M 194.511719 167.746094 L 162.117188 167.746094 L 162.117188 140.164062 L 129.292969 140.164062 L 129.292969 167.773438 L 162.117188 167.773438 L 162.117188 195.378906 L 195.378906 195.378906 L 195.378906 167.746094 L 227.773438 167.746094 L 227.773438 140.164062 L 194.511719 140.164062 Z M 194.511719 167.746094 " fill-opacity="1" fill-rule="nonzero"/><path fill="#efede8" d="M 261.160156 167.746094 L 293.554688 167.746094 L 293.554688 140.164062 L 260.292969 140.164062 L 260.292969 167.746094 L 227.898438 167.746094 L 227.898438 195.378906 L 261.160156 195.378906 Z M 261.160156 167.746094 " fill-opacity="1" fill-rule="nonzero"/><path fill="#efede8" d="M 129.292969 193.527344 L 161.683594 193.527344 L 161.683594 218.140625 L 129.292969 218.140625 Z M 129.292969 193.527344 " fill-opacity="1" fill-rule="nonzero"/><g clip-path="url(#b0f7221678)"><path fill="#efede8" d="M 68.933594 167.441406 L 90.683594 167.441406 L 90.683594 200.292969 L 63.191406 200.292969 L 63.191406 222.835938 L 91.128906 222.835938 L 91.128906 200.292969 L 108.496094 200.292969 L 108.496094 143.132812 L 68.933594 143.132812 L 68.933594 165.292969 L 40.164062 165.292969 L 40.164062 189.90625 L 68.933594 189.90625 Z M 68.933594 167.441406 " fill-opacity="1" fill-rule="nonzero"/></g><path fill="#efede8" d="M 202.210938 49.660156 L 227.796875 49.660156 L 227.796875 107.226562 L 202.210938 107.226562 Z M 202.210938 49.660156 " fill-opacity="1" fill-rule="nonzero"/><path fill="#efede8" d="M 161.914062 223.011719 L 161.914062 250.59375 L 195.378906 250.59375 L 195.378906 270.960938 L 227.773438 270.960938 L 227.773438 195.378906 L 195.378906 195.378906 L 195.378906 223.011719 Z M 161.914062 223.011719 " fill-opacity="1" fill-rule="nonzero"/><path fill="#efede8" d="M 194.511719 295.574219 L 226.902344 295.574219 L 226.902344 320.1875 L 194.511719 320.1875 Z M 194.511719 295.574219 " fill-opacity="1" fill-rule="nonzero"/><path fill="#efede8" d="M 324.589844 233.144531 L 324.589844 144.875 L 314.558594 144.875 L 314.558594 195.378906 L 261.1875 195.378906 L 261.1875 234.9375 L 285.492188 234.9375 L 285.492188 213.1875 L 314.558594 213.1875 L 314.558594 233.144531 Z M 324.589844 233.144531 " fill-opacity="1" fill-rule="nonzero"/></svg>